<?xml version="1.0" encoding="UTF-8"?>
<svg version="1.1" xmlns="http://www.w3.org/2000/svg" width="46" height="246">
<path d="M0 0 C4.41670313 8.3057371 4.30508734 18.76634098 4 28 C-2.39296661 26.00667932 -8.47046394 23.58525386 -14.5625 20.8125 C-15.78936523 20.26045898 -15.78936523 20.26045898 -17.04101562 19.69726562 C-19.02909218 18.80204987 -21.01480308 17.9015835 -23 17 C-22.80688477 15.20214844 -22.80688477 15.20214844 -22 13 C-19.86694336 11.35253906 -19.86694336 11.35253906 -17.08984375 9.765625 C-16.10048828 9.19199219 -15.11113281 8.61835937 -14.09179688 8.02734375 C-13.05087891 7.44082031 -12.00996094 6.85429688 -10.9375 6.25 C-9.89271484 5.64800781 -8.84792969 5.04601562 -7.77148438 4.42578125 C-5.1873054 2.93899335 -2.59690173 1.46441589 0 0 Z M-11 14 C-8.01353231 15.99097846 -5.40312738 16.94124926 -2 18 C-2.33 15.36 -2.66 12.72 -3 10 C-6.28158484 10 -8.37881108 12.17656423 -11 14 Z " fill="#79CFB2" transform="translate(25,94)"/>
<path d="M0 0 C3.43950364 0.61198376 5.51564485 1.92058847 8.25 4.0625 C8.95640625 4.61035156 9.6628125 5.15820312 10.390625 5.72265625 C11.18726563 6.35494141 11.18726563 6.35494141 12 7 C11.07084243 8.62978448 10.13135466 10.25368275 9.1875 11.875 C8.40439453 13.23238281 8.40439453 13.23238281 7.60546875 14.6171875 C6 17 6 17 3 19 C-0.3 16.69 -3.6 14.38 -7 12 C-5.05372161 7.13430402 -3.07915761 4.13255363 0 0 Z " fill="#74CDB4" transform="translate(21,18)"/>
<path d="M0 0 C0.49476309 7.29775561 0.49476309 7.29775561 -1.9375 10.75 C-2.618125 11.4925 -3.29875 12.235 -4 13 C-4.77833534 15.18214568 -4.77833534 15.18214568 -5 17 C-3.35 17 -1.7 17 0 17 C0 19.31 0 21.62 0 24 C-3.88817732 24.30495508 -6.4026107 24.29233945 -9.9375 22.5625 C-12.55326922 19.31260491 -12.6684084 17.32510856 -12.4140625 13.2421875 C-11.45540512 8.05096735 -8.39228973 5.13027721 -4.3125 2.125 C-1 0 -1 0 0 0 Z " fill="#C6A367" transform="translate(46,162)"/>
<path d="M0 0 C0.33 1.32 0.66 2.64 1 4 C0.16855469 4.72316406 0.16855469 4.72316406 -0.6796875 5.4609375 C-1.40414062 6.09257812 -2.12859375 6.72421875 -2.875 7.375 C-3.95394531 8.31472656 -3.95394531 8.31472656 -5.0546875 9.2734375 C-8.99552057 12.77112468 -9.41480894 14.73328043 -10 20 C-10.33 20 -10.66 20 -11 20 C-11.36776648 15.40291902 -11.46665787 11.97064836 -9.4375 7.75 C-6.54709077 4.48902548 -3.64216056 2.38141268 0 0 Z " fill="#D5B674" transform="translate(45,162)"/>
<path d="M0 0 C0.33 0 0.66 0 1 0 C1 2.97 1 5.94 1 9 C-8.71428571 6 -8.71428571 6 -12 3 C-7.48281619 1.63115642 -4.41225737 2.52924754 0 4 C0 2.68 0 1.36 0 0 Z " fill="#6CBEA1" transform="translate(28,113)"/>
<path d="M0 0 C-0.125 2.25 -0.125 2.25 -1 5 C-1.969375 5.639375 -2.93875 6.27875 -3.9375 6.9375 C-7.51988764 9.35012841 -8.06307894 10.87754735 -9 15 C-9.33 15 -9.66 15 -10 15 C-10.46381938 12.2170837 -10.6734544 10.68879181 -10 8 C-3.90608696 0 -3.90608696 0 0 0 Z " fill="#BC9B5B" transform="translate(46,166)"/>
<path d="M0 0 C0 1.65 0 3.3 0 5 C-2.97 6.32 -5.94 7.64 -9 9 C-9 6 -9 6 -7.8125 4.5 C-2.375 0 -2.375 0 0 0 Z " fill="#5BC4A0" transform="translate(23,99)"/>
<path d="M0 0 C0 3 0 3 -1.6796875 4.7890625 C-2.40414062 5.39492187 -3.12859375 6.00078125 -3.875 6.625 C-4.59429687 7.23601562 -5.31359375 7.84703125 -6.0546875 8.4765625 C-8 10 -8 10 -10 11 C-8.67367286 5.36310966 -4.53368235 3.06814317 0 0 Z " fill="#E5CF93" transform="translate(45,162)"/>
<path d="M0 0 C0.33 0.66 0.66 1.32 1 2 C2.65 2 4.3 2 6 2 C6 3.65 6 5.3 6 7 C4.68 7 3.36 7 2 7 C0.5393715 4.35261084 0 3.10551666 0 0 Z " fill="#D5BB7D" transform="translate(40,177)"/>
<path d="M0 0 C0.66 0 1.32 0 2 0 C1.814375 1.0725 1.62875 2.145 1.4375 3.25 C1.0695432 6.40391546 0.95534657 8.09818492 2 11 C1.01 10.67 0.02 10.34 -1 10 C-1.125 3.375 -1.125 3.375 0 0 Z " fill="#CDB071" transform="translate(40,173)"/>
<path d="M0 0 C0.66 0 1.32 0 2 0 C1.75 2.375 1.75 2.375 1 5 C-1.0625 6.3125 -1.0625 6.3125 -3 7 C-1.125 1.125 -1.125 1.125 0 0 Z " fill="#C3A667" transform="translate(44,166)"/>
</svg>
