<?xml version="1.0" encoding="UTF-8"?>
<!DOCTYPE svg PUBLIC "-//W3C//DTD SVG 1.1//EN" "http://www.w3.org/Graphics/SVG/1.1/DTD/svg11.dtd">
<svg xmlns="http://www.w3.org/2000/svg" version="1.1" width="264px" height="264px" style="shape-rendering:geometricPrecision; text-rendering:geometricPrecision; image-rendering:optimizeQuality; fill-rule:evenodd; clip-rule:evenodd" xmlns:xlink="http://www.w3.org/1999/xlink">
<g><path style="opacity:1" fill="#d6af53" d="M 236.5,74.5 C 237.601,75.8484 238.601,77.3484 239.5,79C 236.333,80.8333 233.833,83.3333 232,86.5C 230.161,93.1993 227.661,99.5326 224.5,105.5C 224.631,104.761 224.464,104.094 224,103.5C 220.629,106.039 217.129,108.373 213.5,110.5C 216.201,107.394 219.035,104.394 222,101.5C 223.288,95.0993 224.788,88.7659 226.5,82.5C 230.209,80.1053 233.542,77.4387 236.5,74.5 Z"/></g>
<g><path style="opacity:1" fill="#cfab54" d="M 236.5,74.5 C 233.542,77.4387 230.209,80.1053 226.5,82.5C 224.788,88.7659 223.288,95.0993 222,101.5C 219.035,104.394 216.201,107.394 213.5,110.5C 212.653,111.966 211.32,112.8 209.5,113C 204.98,113.814 200.646,113.647 196.5,112.5C 204.966,114.343 211.466,111.677 216,104.5C 216.494,102.866 216.66,101.199 216.5,99.5C 218.409,91.2641 221.575,83.5974 226,76.5C 228.488,74.2567 231.154,72.2567 234,70.5C 235.095,71.6934 235.928,73.0267 236.5,74.5 Z"/></g>
<g><path style="opacity:1" fill="#e7d590" d="M 212.5,103.5 C 209.805,108.626 205.472,111.293 199.5,111.5C 194.38,111.441 189.713,109.941 185.5,107C 179.175,106.5 172.842,106.334 166.5,106.5C 170.243,104.206 174.409,103.206 179,103.5C 186.419,104.419 193.752,105.752 201,107.5C 205.406,107.709 209.24,106.376 212.5,103.5 Z"/></g>
<g><path style="opacity:1" fill="#d7ba69" d="M 216.5,99.5 C 216.66,101.199 216.494,102.866 216,104.5C 211.466,111.677 204.966,114.343 196.5,112.5C 190.782,110.728 184.948,109.395 179,108.5C 175.06,108.649 171.227,109.316 167.5,110.5C 167.167,109.167 166.833,107.833 166.5,106.5C 172.842,106.334 179.175,106.5 185.5,107C 189.713,109.941 194.38,111.441 199.5,111.5C 205.472,111.293 209.805,108.626 212.5,103.5C 214.194,102.473 215.527,101.139 216.5,99.5 Z"/></g>
<g><path style="opacity:1" fill="#d5a33d" d="M 224.5,105.5 C 223.145,108.855 220.811,111.189 217.5,112.5C 212.879,114.341 208.045,115.341 203,115.5C 195.567,114.971 188.234,113.971 181,112.5C 178.5,112.667 176,112.833 173.5,113C 172.944,113.383 172.611,113.883 172.5,114.5C 172.158,115.338 171.492,115.672 170.5,115.5C 170.068,114.29 169.401,113.29 168.5,112.5C 168.167,111.833 167.833,111.167 167.5,110.5C 171.227,109.316 175.06,108.649 179,108.5C 184.948,109.395 190.782,110.728 196.5,112.5C 200.646,113.647 204.98,113.814 209.5,113C 211.32,112.8 212.653,111.966 213.5,110.5C 217.129,108.373 220.629,106.039 224,103.5C 224.464,104.094 224.631,104.761 224.5,105.5 Z"/></g>
<g><path style="opacity:1" fill="#e0b242" d="M 217.5,112.5 C 213.071,116.619 207.738,118.619 201.5,118.5C 193.703,117.457 186.036,115.79 178.5,113.5C 176.547,114.156 174.547,114.489 172.5,114.5C 172.611,113.883 172.944,113.383 173.5,113C 176,112.833 178.5,112.667 181,112.5C 188.234,113.971 195.567,114.971 203,115.5C 208.045,115.341 212.879,114.341 217.5,112.5 Z"/></g>
<g><path style="opacity:1" fill="#cb4d2d" d="M 167.5,112.5 C 162.995,116.894 159.495,121.894 157,127.5C 155.844,131.44 155.01,135.44 154.5,139.5C 150.133,141.359 146.467,144.193 143.5,148C 137.544,150.573 131.544,151.073 125.5,149.5C 129.548,149.605 133.548,149.272 137.5,148.5C 143.007,146.824 147.174,143.491 150,138.5C 153.44,132.186 156.107,125.519 158,118.5C 160.331,114.971 163.497,112.971 167.5,112.5 Z"/></g>
<g><path style="opacity:1" fill="#c64e31" d="M 166.5,106.5 C 166.833,107.833 167.167,109.167 167.5,110.5C 167.833,111.167 168.167,111.833 168.5,112.5C 168.167,112.5 167.833,112.5 167.5,112.5C 163.497,112.971 160.331,114.971 158,118.5C 156.107,125.519 153.44,132.186 150,138.5C 147.174,143.491 143.007,146.824 137.5,148.5C 138.902,146.517 140.736,144.851 143,143.5C 143.791,142.255 144.291,140.922 144.5,139.5C 148.146,132.402 151.313,125.068 154,117.5C 157.118,112.543 161.285,108.876 166.5,106.5 Z"/></g>
<g><path style="opacity:1" fill="#d4562f" d="M 167.5,112.5 C 167.833,112.5 168.167,112.5 168.5,112.5C 169.401,113.29 170.068,114.29 170.5,115.5C 168.229,117.266 166.063,119.266 164,121.5C 161.101,128.728 157.935,135.728 154.5,142.5C 154.5,141.5 154.5,140.5 154.5,139.5C 155.01,135.44 155.844,131.44 157,127.5C 159.495,121.894 162.995,116.894 167.5,112.5 Z"/></g>
<g><path style="opacity:1" fill="#e58769" d="M 142.5,141.5 C 141.657,143.173 140.324,144.34 138.5,145C 135.561,146.119 132.561,146.952 129.5,147.5C 123.163,145.778 116.83,143.944 110.5,142C 106.848,141.501 103.182,141.335 99.5,141.5C 102.051,140.155 104.884,139.489 108,139.5C 115.808,141.269 123.642,142.936 131.5,144.5C 133.5,144.333 135.5,144.167 137.5,144C 139.078,142.906 140.745,142.072 142.5,141.5 Z"/></g>
<g><path style="opacity:1" fill="#cc4721" d="M 154.5,139.5 C 154.5,140.5 154.5,141.5 154.5,142.5C 152.016,147.651 148.016,150.984 142.5,152.5C 136.824,152.666 131.157,152.499 125.5,152C 119.903,150.189 114.236,148.689 108.5,147.5C 101.118,146.584 96.4517,149.584 94.5,156.5C 93.5,158.5 92.5,160.5 91.5,162.5C 91.1667,162.5 90.8333,162.5 90.5,162.5C 90.0596,157.172 91.3929,152.506 94.5,148.5C 98.7428,146.469 103.243,145.469 108,145.5C 113.604,145.98 119.104,146.98 124.5,148.5C 124.5,149.167 124.833,149.5 125.5,149.5C 131.544,151.073 137.544,150.573 143.5,148C 146.467,144.193 150.133,141.359 154.5,139.5 Z"/></g>
<g><path style="opacity:1" fill="#d5684a" d="M 144.5,139.5 C 144.291,140.922 143.791,142.255 143,143.5C 140.736,144.851 138.902,146.517 137.5,148.5C 133.548,149.272 129.548,149.605 125.5,149.5C 124.833,149.5 124.5,149.167 124.5,148.5C 109.819,140.353 96.4855,142.02 84.5,153.5C 87.6936,147.313 92.6936,143.313 99.5,141.5C 103.182,141.335 106.848,141.501 110.5,142C 116.83,143.944 123.163,145.778 129.5,147.5C 132.561,146.952 135.561,146.119 138.5,145C 140.324,144.34 141.657,143.173 142.5,141.5C 142.833,140.5 143.5,139.833 144.5,139.5 Z"/></g>
<g><path style="opacity:1" fill="#d75223" d="M 142.5,152.5 C 139.245,154.566 135.579,155.566 131.5,155.5C 123.781,154.037 116.115,152.371 108.5,150.5C 102.863,150.375 98.1961,152.375 94.5,156.5C 96.4517,149.584 101.118,146.584 108.5,147.5C 114.236,148.689 119.903,150.189 125.5,152C 131.157,152.499 136.824,152.666 142.5,152.5 Z"/></g>
<g><path style="opacity:1" fill="#c85033" d="M 124.5,148.5 C 119.104,146.98 113.604,145.98 108,145.5C 103.243,145.469 98.7428,146.469 94.5,148.5C 91.3929,152.506 90.0596,157.172 90.5,162.5C 87.4262,161.698 84.4262,160.698 81.5,159.5C 81.9925,157.181 82.9925,155.181 84.5,153.5C 96.4855,142.02 109.819,140.353 124.5,148.5 Z"/></g>
<g><path style="opacity:1" fill="#475eae" d="M 81.5,159.5 C 84.4262,160.698 87.4262,161.698 90.5,162.5C 90.8333,162.5 91.1667,162.5 91.5,162.5C 90.2037,167.759 87.8704,172.426 84.5,176.5C 83.7494,175.427 82.7494,175.26 81.5,176C 77.706,181.568 72.3727,184.568 65.5,185C 54.6588,185.17 43.9921,185.67 33.5,186.5C 32.391,186.557 31.391,186.89 30.5,187.5C 30.5,186.167 30.5,184.833 30.5,183.5C 31.2216,183.918 31.7216,184.584 32,185.5C 43.7821,184.759 55.6154,184.092 67.5,183.5C 67.281,182.325 67.6143,181.325 68.5,180.5C 72.6268,179.375 74.9601,176.708 75.5,172.5C 77.7737,168.286 79.7737,163.953 81.5,159.5 Z"/></g>
<g><path style="opacity:0.999" fill="#7299e3" d="M 71.5,175.5 C 71.4226,176.75 70.756,177.583 69.5,178C 66.0433,179.743 62.3767,180.743 58.5,181C 48.7963,180.953 39.1297,181.12 29.5,181.5C 28.5,180.833 27.5,180.167 26.5,179.5C 28.7402,178.313 31.2402,177.646 34,177.5C 43.4422,179.212 52.9422,179.712 62.5,179C 65.6469,178.119 68.6469,176.953 71.5,175.5 Z"/></g>
<g><path style="opacity:1" fill="#4f72c8" d="M 75.5,172.5 C 74.9601,176.708 72.6268,179.375 68.5,180.5C 67.6143,181.325 67.281,182.325 67.5,183.5C 55.6154,184.092 43.7821,184.759 32,185.5C 31.7216,184.584 31.2216,183.918 30.5,183.5C 30.1667,182.833 29.8333,182.167 29.5,181.5C 39.1297,181.12 48.7963,180.953 58.5,181C 62.3767,180.743 66.0433,179.743 69.5,178C 70.756,177.583 71.4226,176.75 71.5,175.5C 72.8333,174.5 74.1667,173.5 75.5,172.5 Z"/></g>
<g><path style="opacity:1" fill="#161a54" d="M 26.5,179.5 C 27.5,180.167 28.5,180.833 29.5,181.5C 29.8333,182.167 30.1667,182.833 30.5,183.5C 30.5,184.833 30.5,186.167 30.5,187.5C 30.5,187.833 30.5,188.167 30.5,188.5C 24.7088,189.19 22.5421,186.523 24,180.5C 24.6708,179.748 25.5041,179.414 26.5,179.5 Z"/></g>
<g><path style="opacity:1" fill="#49548d" d="M 84.5,176.5 C 84.5,176.833 84.5,177.167 84.5,177.5C 81.3368,179.811 78.0035,181.978 74.5,184C 61.0416,187.686 47.3749,188.52 33.5,186.5C 43.9921,185.67 54.6588,185.17 65.5,185C 72.3727,184.568 77.706,181.568 81.5,176C 82.7494,175.26 83.7494,175.427 84.5,176.5 Z"/></g>
<g><path style="opacity:1" fill="#616799" d="M 84.5,177.5 C 76.5228,186.148 66.5228,190.481 54.5,190.5C 46.5227,189.503 38.5227,188.836 30.5,188.5C 30.5,188.167 30.5,187.833 30.5,187.5C 31.391,186.89 32.391,186.557 33.5,186.5C 47.3749,188.52 61.0416,187.686 74.5,184C 78.0035,181.978 81.3368,179.811 84.5,177.5 Z"/></g>
</svg>
