<?xml version="1.0" encoding="UTF-8"?>
<!DOCTYPE svg PUBLIC "-//W3C//DTD SVG 1.1//EN" "http://www.w3.org/Graphics/SVG/1.1/DTD/svg11.dtd">
<svg xmlns="http://www.w3.org/2000/svg" version="1.1" width="598px" height="598px" style="shape-rendering:geometricPrecision; text-rendering:geometricPrecision; image-rendering:optimizeQuality; fill-rule:evenodd; clip-rule:evenodd" xmlns:xlink="http://www.w3.org/1999/xlink">
<g><path style="opacity:0.983" fill="#dfdcf8" d="M 221.5,114.5 C 222.873,114.343 224.207,114.51 225.5,115C 225.043,115.414 224.709,115.914 224.5,116.5C 217.076,123.432 209.243,129.766 201,135.5C 199.754,139.73 200.92,143.064 204.5,145.5C 203.5,147.5 202.5,149.5 201.5,151.5C 203.98,152.415 204.647,153.915 203.5,156C 204.609,157.876 205.609,159.709 206.5,161.5C 206.167,162.167 205.833,162.833 205.5,163.5C 204.833,163.5 204.167,163.5 203.5,163.5C 202.438,160.622 200.438,158.622 197.5,157.5C 197.709,156.914 198.043,156.414 198.5,156C 194.156,152.066 191.323,147.233 190,141.5C 189.329,142.252 188.496,142.586 187.5,142.5C 190.702,134.464 196.369,128.964 204.5,126C 209.267,120.715 214.934,116.881 221.5,114.5 Z"/></g>
<g><path style="opacity:0.962" fill="#e6dbde" d="M 231.5,115.5 C 236.425,117.257 239.925,120.59 242,125.5C 246.108,130.21 250.775,134.21 256,137.5C 262.019,148.266 260.185,157.266 250.5,164.5C 250.703,162.956 251.37,161.622 252.5,160.5C 252.167,160.167 251.833,159.833 251.5,159.5C 247.756,160.466 244.256,161.799 241,163.5C 235.279,162.075 229.446,161.075 223.5,160.5C 220.279,161.111 217.279,162.278 214.5,164C 211.408,164.736 208.408,164.569 205.5,163.5C 205.833,162.833 206.167,162.167 206.5,161.5C 207.583,161.539 208.583,161.873 209.5,162.5C 210.354,161.478 211.354,160.645 212.5,160C 210.764,158.061 209.764,155.728 209.5,153C 211.071,148.521 213.404,144.521 216.5,141C 217.833,140.333 219.167,140.333 220.5,141C 222.519,144.055 224.352,147.222 226,150.5C 228.564,152.727 231.397,154.561 234.5,156C 238.091,156.45 240.591,154.95 242,151.5C 244.196,147.413 245.696,143.079 246.5,138.5C 246.182,137.353 245.516,136.519 244.5,136C 241.211,135.118 237.877,134.452 234.5,134C 232.671,133.727 231.171,132.893 230,131.5C 229.364,126.056 229.864,120.722 231.5,115.5 Z"/></g>
<g><path style="opacity:1" fill="#e2e0ed" d="M 221.5,114.5 C 222.622,113.844 223.955,113.511 225.5,113.5C 227.883,113.361 229.883,114.028 231.5,115.5C 229.864,120.722 229.364,126.056 230,131.5C 231.171,132.893 232.671,133.727 234.5,134C 237.877,134.452 241.211,135.118 244.5,136C 245.516,136.519 246.182,137.353 246.5,138.5C 245.696,143.079 244.196,147.413 242,151.5C 240.591,154.95 238.091,156.45 234.5,156C 231.397,154.561 228.564,152.727 226,150.5C 224.352,147.222 222.519,144.055 220.5,141C 219.167,140.333 217.833,140.333 216.5,141C 213.404,144.521 211.071,148.521 209.5,153C 209.764,155.728 210.764,158.061 212.5,160C 211.354,160.645 210.354,161.478 209.5,162.5C 208.583,161.873 207.583,161.539 206.5,161.5C 205.609,159.709 204.609,157.876 203.5,156C 204.647,153.915 203.98,152.415 201.5,151.5C 202.5,149.5 203.5,147.5 204.5,145.5C 200.92,143.064 199.754,139.73 201,135.5C 209.243,129.766 217.076,123.432 224.5,116.5C 224.709,115.914 225.043,115.414 225.5,115C 224.207,114.51 222.873,114.343 221.5,114.5 Z"/></g>
<g><path style="opacity:1" fill="#3e363c" d="M 349.5,132.5 C 350.959,132.433 352.292,132.766 353.5,133.5C 349.478,140.924 347.811,148.924 348.5,157.5C 351.877,157.932 354.877,157.265 357.5,155.5C 358.167,155.5 358.833,155.5 359.5,155.5C 357.747,157.223 355.747,158.723 353.5,160C 356.542,159.808 358.209,161.141 358.5,164C 358.35,167.986 357.35,171.486 355.5,174.5C 355.739,170.158 356.073,165.824 356.5,161.5C 353.833,161.5 351.167,161.5 348.5,161.5C 346.901,161.768 345.568,161.434 344.5,160.5C 343.612,150.618 345.278,141.284 349.5,132.5 Z"/></g>
<g><path style="opacity:1" fill="#4b3c31" d="M 353.5,133.5 C 355.819,133.992 357.819,134.992 359.5,136.5C 359.678,137.695 360.011,138.862 360.5,140C 356.018,144.474 352.685,149.641 350.5,155.5C 352.833,155.5 355.167,155.5 357.5,155.5C 354.877,157.265 351.877,157.932 348.5,157.5C 347.811,148.924 349.478,140.924 353.5,133.5 Z"/></g>
<g><path style="opacity:1" fill="#6b4b37" d="M 359.5,136.5 C 361.984,138.12 363.484,140.453 364,143.5C 364.579,147.203 364.412,150.869 363.5,154.5C 362.041,154.433 360.708,154.766 359.5,155.5C 358.833,155.5 358.167,155.5 357.5,155.5C 355.167,155.5 352.833,155.5 350.5,155.5C 352.685,149.641 356.018,144.474 360.5,140C 360.011,138.862 359.678,137.695 359.5,136.5 Z"/></g>
<g><path style="opacity:1" fill="#423964" d="M 349.5,132.5 C 345.278,141.284 343.612,150.618 344.5,160.5C 336.63,157.087 333.796,151.087 336,142.5C 338.38,136.285 342.88,132.951 349.5,132.5 Z"/></g>
<g><path style="opacity:1" fill="#d4caf6" d="M 203.5,163.5 C 202.559,165.05 201.893,166.716 201.5,168.5C 190.042,163.589 185.376,154.922 187.5,142.5C 188.496,142.586 189.329,142.252 190,141.5C 191.323,147.233 194.156,152.066 198.5,156C 198.043,156.414 197.709,156.914 197.5,157.5C 200.438,158.622 202.438,160.622 203.5,163.5 Z"/></g>
<g><path style="opacity:1" fill="#483e35" d="M 363.5,154.5 C 366.331,155.079 368.664,156.412 370.5,158.5C 370.822,160.722 370.155,162.556 368.5,164C 365.635,164.183 362.969,164.683 360.5,165.5C 360.31,169.295 359.31,172.628 357.5,175.5C 356.508,175.672 355.842,175.338 355.5,174.5C 357.35,171.486 358.35,167.986 358.5,164C 358.209,161.141 356.542,159.808 353.5,160C 355.747,158.723 357.747,157.223 359.5,155.5C 360.708,154.766 362.041,154.433 363.5,154.5 Z"/></g>
<g><path style="opacity:1" fill="#e5c8d4" d="M 250.5,164.5 C 247.713,166.329 244.546,167.329 241,167.5C 231.61,164.342 222.443,164.842 213.5,169C 209.446,169.694 205.446,169.527 201.5,168.5C 201.893,166.716 202.559,165.05 203.5,163.5C 204.167,163.5 204.833,163.5 205.5,163.5C 208.408,164.569 211.408,164.736 214.5,164C 217.279,162.278 220.279,161.111 223.5,160.5C 229.446,161.075 235.279,162.075 241,163.5C 244.256,161.799 247.756,160.466 251.5,159.5C 251.833,159.833 252.167,160.167 252.5,160.5C 251.37,161.622 250.703,162.956 250.5,164.5 Z"/></g>
<g><path style="opacity:1" fill="#75563f" d="M 370.5,158.5 C 373.035,160.846 373.702,163.513 372.5,166.5C 368.6,165.57 364.6,165.237 360.5,165.5C 362.969,164.683 365.635,164.183 368.5,164C 370.155,162.556 370.822,160.722 370.5,158.5 Z"/></g>
<g><path style="opacity:1" fill="#423764" d="M 348.5,161.5 C 351.167,161.5 353.833,161.5 356.5,161.5C 356.073,165.824 355.739,170.158 355.5,174.5C 354.5,174.5 353.5,174.5 352.5,174.5C 350.876,174.64 349.71,173.973 349,172.5C 348.578,170.645 348.078,168.811 347.5,167C 348.233,165.234 348.567,163.401 348.5,161.5 Z"/></g>
<g><path style="opacity:1" fill="#eec59e" d="M 360.5,165.5 C 364.6,165.237 368.6,165.57 372.5,166.5C 373.29,167.794 374.29,168.961 375.5,170C 374.464,171.617 373.297,171.784 372,170.5C 368.927,177.003 364.094,179.336 357.5,177.5C 357.5,176.833 357.5,176.167 357.5,175.5C 359.31,172.628 360.31,169.295 360.5,165.5 Z"/></g>
<g><path style="opacity:0.702" fill="#d56c80" d="M 352.5,174.5 C 353.5,174.5 354.5,174.5 355.5,174.5C 355.842,175.338 356.508,175.672 357.5,175.5C 357.5,176.167 357.5,176.833 357.5,177.5C 355.326,177.25 353.659,176.25 352.5,174.5 Z"/></g>
<g><path style="opacity:1" fill="#e17254" d="M 358.5,182.5 C 362.171,191.518 364.838,200.851 366.5,210.5C 364.859,211.147 363.526,212.147 362.5,213.5C 360.653,212.427 358.653,212.427 356.5,213.5C 354.225,207.946 352.225,202.28 350.5,196.5C 352.059,191.701 353.725,187.034 355.5,182.5C 356.5,182.5 357.5,182.5 358.5,182.5 Z"/></g>
<g><path style="opacity:1" fill="#d46386" d="M 340.5,181.5 C 343.127,182.092 345.794,182.425 348.5,182.5C 348.96,187.495 347.96,192.162 345.5,196.5C 347.074,203.363 349.074,210.03 351.5,216.5C 350.878,217.627 350.045,218.627 349,219.5C 346.428,213.234 343.594,207.234 340.5,201.5C 339.566,202.568 339.232,203.901 339.5,205.5C 335.184,215.103 332.184,225.27 330.5,236C 330.354,238.034 331.02,239.701 332.5,241C 329.665,245.787 329.998,250.287 333.5,254.5C 332.691,256.071 332.357,257.738 332.5,259.5C 330.703,260.73 328.703,261.396 326.5,261.5C 326.26,258.421 326.593,255.421 327.5,252.5C 325.129,248.54 324.463,244.373 325.5,240C 324.443,236.554 323.11,233.221 321.5,230C 323.186,218.941 326.852,208.608 332.5,199C 331.692,198.692 331.025,198.192 330.5,197.5C 332.227,194.713 333.394,191.713 334,188.5C 337.3,186.443 337.133,185.443 333.5,185.5C 335.336,183.412 337.669,182.079 340.5,181.5 Z"/></g>
<g><path style="opacity:1" fill="#ed865e" d="M 358.5,182.5 C 359.5,182.5 360.5,182.5 361.5,182.5C 367.1,184.287 372.767,186.121 378.5,188C 379.973,188.71 380.64,189.876 380.5,191.5C 379.655,192.671 378.989,194.005 378.5,195.5C 377.603,196.598 376.77,196.598 376,195.5C 375.093,201.516 374.093,207.516 373,213.5C 372.066,214.858 371.232,216.192 370.5,217.5C 369.833,216.5 369.167,215.5 368.5,214.5C 367.4,213.395 366.733,212.062 366.5,210.5C 364.838,200.851 362.171,191.518 358.5,182.5 Z"/></g>
<g><path style="opacity:0.769" fill="#e9c3bf" d="M 429.5,177.5 C 427.289,181.454 426.956,185.62 428.5,190C 427.833,191 427.167,192 426.5,193C 416.317,196.554 405.817,198.387 395,198.5C 392.992,198.693 391.492,198.026 390.5,196.5C 401.918,195.656 413.252,194.156 424.5,192C 425.944,190.874 426.61,189.374 426.5,187.5C 425.668,184.518 425.501,181.518 426,178.5C 427.011,177.663 428.178,177.33 429.5,177.5 Z"/></g>
<g><path style="opacity:1" fill="#db6e70" d="M 340.5,181.5 C 342.978,180.836 345.645,180.503 348.5,180.5C 353.093,180.379 357.426,181.046 361.5,182.5C 360.5,182.5 359.5,182.5 358.5,182.5C 357.5,182.5 356.5,182.5 355.5,182.5C 353.725,187.034 352.059,191.701 350.5,196.5C 352.225,202.28 354.225,207.946 356.5,213.5C 355.101,214.89 353.434,215.89 351.5,216.5C 349.074,210.03 347.074,203.363 345.5,196.5C 347.96,192.162 348.96,187.495 348.5,182.5C 345.794,182.425 343.127,182.092 340.5,181.5 Z"/></g>
<g><path style="opacity:1" fill="#f6d9bb" d="M 429.5,177.5 C 430.496,177.414 431.329,177.748 432,178.5C 432.826,181.793 433.326,185.126 433.5,188.5C 436.5,188.5 439.5,188.5 442.5,188.5C 443.052,190.331 443.052,191.997 442.5,193.5C 444.908,196.131 444.908,198.631 442.5,201C 443.056,201.383 443.389,201.883 443.5,202.5C 440.193,202.063 437.193,202.73 434.5,204.5C 432.171,203.229 431.005,201.229 431,198.5C 430.261,197.426 429.261,196.759 428,196.5C 425.208,197.79 422.375,198.957 419.5,200C 411.516,201.325 403.516,202.658 395.5,204C 394.941,204.725 394.608,205.558 394.5,206.5C 395.225,207.867 395.892,209.2 396.5,210.5C 392.154,210.666 387.821,210.499 383.5,210C 382.584,209.722 381.918,209.222 381.5,208.5C 378.129,204.685 377.129,200.352 378.5,195.5C 378.989,194.005 379.655,192.671 380.5,191.5C 383.515,193.674 386.849,195.341 390.5,196.5C 391.492,198.026 392.992,198.693 395,198.5C 405.817,198.387 416.317,196.554 426.5,193C 427.167,192 427.833,191 428.5,190C 426.956,185.62 427.289,181.454 429.5,177.5 Z"/></g>
<g><path style="opacity:0.975" fill="#fdedd3" d="M 443.5,202.5 C 444.935,204.665 444.269,206.165 441.5,207C 437.961,207.282 434.461,207.782 431,208.5C 424.872,207.395 418.706,207.228 412.5,208C 407.154,208.838 401.821,209.671 396.5,210.5C 395.892,209.2 395.225,207.867 394.5,206.5C 394.608,205.558 394.941,204.725 395.5,204C 403.516,202.658 411.516,201.325 419.5,200C 422.375,198.957 425.208,197.79 428,196.5C 429.261,196.759 430.261,197.426 431,198.5C 431.005,201.229 432.171,203.229 434.5,204.5C 437.193,202.73 440.193,202.063 443.5,202.5 Z"/></g>
<g><path style="opacity:1" fill="#f7ad80" d="M 378.5,195.5 C 377.129,200.352 378.129,204.685 381.5,208.5C 380.448,208.351 379.448,208.517 378.5,209C 379.514,213.771 379.514,218.605 378.5,223.5C 375.011,222.687 372.344,220.687 370.5,217.5C 371.232,216.192 372.066,214.858 373,213.5C 374.093,207.516 375.093,201.516 376,195.5C 376.77,196.598 377.603,196.598 378.5,195.5 Z"/></g>
<g><path style="opacity:1" fill="#d76570" d="M 339.5,205.5 C 339.326,213.356 339.659,221.189 340.5,229C 339.634,238.49 338.967,247.99 338.5,257.5C 336.5,258.167 334.5,258.833 332.5,259.5C 332.357,257.738 332.691,256.071 333.5,254.5C 329.998,250.287 329.665,245.787 332.5,241C 331.02,239.701 330.354,238.034 330.5,236C 332.184,225.27 335.184,215.103 339.5,205.5 Z"/></g>
<g><path style="opacity:0.977" fill="#f8afb8" d="M 447.5,213.5 C 450.833,213.5 454.167,213.5 457.5,213.5C 455.021,227.087 453.021,240.754 451.5,254.5C 451.167,254.5 450.833,254.5 450.5,254.5C 447.455,254.492 444.455,254.159 441.5,253.5C 441.714,251.856 441.38,250.356 440.5,249C 443.148,237.261 445.481,225.428 447.5,213.5 Z"/></g>
<g><path style="opacity:1" fill="#ce4a37" d="M 340.5,201.5 C 343.594,207.234 346.428,213.234 349,219.5C 350.045,218.627 350.878,217.627 351.5,216.5C 353.434,215.89 355.101,214.89 356.5,213.5C 358.653,212.427 360.653,212.427 362.5,213.5C 359.517,214.803 356.517,216.136 353.5,217.5C 352.224,218.614 352.224,219.614 353.5,220.5C 355.075,224.078 357.075,227.411 359.5,230.5C 357.549,230.227 356.049,230.893 355,232.5C 353.175,231.897 351.341,231.23 349.5,230.5C 348.725,228.604 347.725,226.937 346.5,225.5C 343.479,217.768 341.479,209.768 340.5,201.5 Z"/></g>
<g><path style="opacity:1" fill="#d48ca3" d="M 353.5,220.5 C 355.394,221.048 357.06,222.048 358.5,223.5C 362.493,228.495 366.493,233.495 370.5,238.5C 366.332,236.577 362.665,233.91 359.5,230.5C 357.075,227.411 355.075,224.078 353.5,220.5 Z"/></g>
<g><path style="opacity:1" fill="#d96656" d="M 340.5,201.5 C 341.479,209.768 343.479,217.768 346.5,225.5C 345.903,225.735 345.57,226.235 345.5,227C 347.232,235.738 347.899,244.571 347.5,253.5C 346.167,254.167 344.833,254.833 343.5,255.5C 341.716,255.893 340.05,256.559 338.5,257.5C 338.967,247.99 339.634,238.49 340.5,229C 339.659,221.189 339.326,213.356 339.5,205.5C 339.232,203.901 339.566,202.568 340.5,201.5 Z"/></g>
<g><path style="opacity:0.991" fill="#ebbfd7" d="M 447.5,213.5 C 445.481,225.428 443.148,237.261 440.5,249C 441.38,250.356 441.714,251.856 441.5,253.5C 439.5,253.5 437.5,253.5 435.5,253.5C 436.234,252.292 436.567,250.959 436.5,249.5C 437.649,249.209 438.316,248.376 438.5,247C 440.953,235.902 442.953,224.735 444.5,213.5C 445.5,213.5 446.5,213.5 447.5,213.5 Z"/></g>
<g><path style="opacity:1" fill="#e6c6ac" d="M 368.5,214.5 C 369.167,215.5 369.833,216.5 370.5,217.5C 372.344,220.687 375.011,222.687 378.5,223.5C 381.654,227.184 385.654,229.684 390.5,231C 397.782,232.135 405.115,232.801 412.5,233C 420.075,235.632 427.741,237.132 435.5,237.5C 430.559,240.626 425.226,241.293 419.5,239.5C 415.291,239.412 411.291,240.079 407.5,241.5C 395.948,239.352 384.948,235.518 374.5,230C 371.93,227.886 369.597,225.553 367.5,223C 369.706,223.926 372.039,224.592 374.5,225C 370.577,222.909 367.911,219.742 366.5,215.5C 366.957,214.702 367.624,214.369 368.5,214.5 Z"/></g>
<g><path style="opacity:1" fill="#e36b4a" d="M 346.5,225.5 C 347.725,226.937 348.725,228.604 349.5,230.5C 351.341,231.23 353.175,231.897 355,232.5C 356.049,230.893 357.549,230.227 359.5,230.5C 362.665,233.91 366.332,236.577 370.5,238.5C 372.5,239.833 374.5,241.167 376.5,242.5C 376.5,243.167 376.167,243.5 375.5,243.5C 366.167,246.833 356.833,250.167 347.5,253.5C 347.899,244.571 347.232,235.738 345.5,227C 345.57,226.235 345.903,225.735 346.5,225.5 Z"/></g>
<g><path style="opacity:1" fill="#e1b69c" d="M 366.5,210.5 C 366.733,212.062 367.4,213.395 368.5,214.5C 367.624,214.369 366.957,214.702 366.5,215.5C 367.911,219.742 370.577,222.909 374.5,225C 372.039,224.592 369.706,223.926 367.5,223C 369.597,225.553 371.93,227.886 374.5,230C 384.948,235.518 395.948,239.352 407.5,241.5C 411.291,240.079 415.291,239.412 419.5,239.5C 425.226,241.293 430.559,240.626 435.5,237.5C 436.98,242.053 435.647,245.719 431.5,248.5C 431.586,247.504 431.252,246.671 430.5,246C 428.5,245 426.5,244 424.5,243C 411.195,243.864 397.862,244.197 384.5,244C 383.833,243.333 383.167,242.667 382.5,242C 378.562,240.526 374.562,239.359 370.5,238.5C 366.493,233.495 362.493,228.495 358.5,223.5C 357.06,222.048 355.394,221.048 353.5,220.5C 352.224,219.614 352.224,218.614 353.5,217.5C 356.517,216.136 359.517,214.803 362.5,213.5C 363.526,212.147 364.859,211.147 366.5,210.5 Z"/></g>
<g><path style="opacity:1" fill="#d05c8d" d="M 333.5,185.5 C 337.133,185.443 337.3,186.443 334,188.5C 333.394,191.713 332.227,194.713 330.5,197.5C 331.025,198.192 331.692,198.692 332.5,199C 326.852,208.608 323.186,218.941 321.5,230C 323.11,233.221 324.443,236.554 325.5,240C 324.463,244.373 325.129,248.54 327.5,252.5C 326.593,255.421 326.26,258.421 326.5,261.5C 326.158,262.338 325.492,262.672 324.5,262.5C 317.275,239.944 318.109,217.611 327,195.5C 328.942,191.931 331.108,188.598 333.5,185.5 Z"/></g>
<g><path style="opacity:0.958" fill="#e58a6b" d="M 370.5,238.5 C 374.562,239.359 378.562,240.526 382.5,242C 383.167,242.667 383.833,243.333 384.5,244C 397.862,244.197 411.195,243.864 424.5,243C 426.5,244 428.5,245 430.5,246C 431.252,246.671 431.586,247.504 431.5,248.5C 430.833,248.833 430.167,249.167 429.5,249.5C 427.212,246.544 424.212,244.877 420.5,244.5C 417.287,244.19 414.287,244.523 411.5,245.5C 401.703,247.13 392.037,246.796 382.5,244.5C 380.579,243.637 378.579,242.971 376.5,242.5C 374.5,241.167 372.5,239.833 370.5,238.5 Z"/></g>
<g><path style="opacity:0.988" fill="#fcd6be" d="M 411.5,245.5 C 414.287,244.523 417.287,244.19 420.5,244.5C 418.121,249.505 415.121,249.839 411.5,245.5 Z"/></g>
<g><path style="opacity:1" fill="#e4ad4e" d="M 375.5,243.5 C 374.402,244.397 374.402,245.23 375.5,246C 368.876,248.058 362.543,250.558 356.5,253.5C 351.023,254.77 345.69,256.437 340.5,258.5C 341.694,257.728 342.694,256.728 343.5,255.5C 344.833,254.833 346.167,254.167 347.5,253.5C 356.833,250.167 366.167,246.833 375.5,243.5 Z"/></g>
<g><path style="opacity:1" fill="#e594b4" d="M 431.5,248.5 C 432.919,249.451 434.585,249.784 436.5,249.5C 436.567,250.959 436.234,252.292 435.5,253.5C 425.662,253.872 415.995,254.539 406.5,255.5C 405.167,255.5 403.833,255.5 402.5,255.5C 402.5,253.833 402.5,252.167 402.5,250.5C 411.584,250.804 420.584,250.471 429.5,249.5C 430.167,249.167 430.833,248.833 431.5,248.5 Z"/></g>
<g><path style="opacity:1" fill="#eda269" d="M 376.5,242.5 C 378.579,242.971 380.579,243.637 382.5,244.5C 382.56,250.295 381.893,255.962 380.5,261.5C 378.497,259.018 375.831,258.018 372.5,258.5C 372.443,260.884 372.777,263.218 373.5,265.5C 372.171,268.695 370.505,269.028 368.5,266.5C 368.709,265.914 369.043,265.414 369.5,265C 367.767,263.811 366.1,262.644 364.5,261.5C 363.504,260.335 362.171,259.668 360.5,259.5C 356.972,260.002 353.638,261.002 350.5,262.5C 346.918,262.793 345.584,261.46 346.5,258.5C 349.883,256.831 353.216,255.164 356.5,253.5C 362.543,250.558 368.876,248.058 375.5,246C 374.402,245.23 374.402,244.397 375.5,243.5C 376.167,243.5 376.5,243.167 376.5,242.5 Z"/></g>
<g><path style="opacity:1" fill="#b94f4e" d="M 435.5,253.5 C 437.5,253.5 439.5,253.5 441.5,253.5C 444.455,254.159 447.455,254.492 450.5,254.5C 449.89,255.391 449.557,256.391 449.5,257.5C 448.713,259.104 447.38,259.771 445.5,259.5C 444.178,256.53 441.844,255.197 438.5,255.5C 436.667,255.585 435.334,256.252 434.5,257.5C 434.167,257.5 433.833,257.5 433.5,257.5C 424.895,255.529 415.895,254.862 406.5,255.5C 415.995,254.539 425.662,253.872 435.5,253.5 Z"/></g>
<g><path style="opacity:1" fill="#d73e28" d="M 402.5,255.5 C 403.833,255.5 405.167,255.5 406.5,255.5C 415.895,254.862 424.895,255.529 433.5,257.5C 429.217,258.827 424.551,259.493 419.5,259.5C 414.654,259.499 409.988,259.166 405.5,258.5C 407.054,257.105 406.721,256.439 404.5,256.5C 401.673,257.663 399.006,257.663 396.5,256.5C 398.565,256.483 400.565,256.15 402.5,255.5 Z"/></g>
<g><path style="opacity:1" fill="#edc1bb" d="M 396.5,256.5 C 399.006,257.663 401.673,257.663 404.5,256.5C 406.721,256.439 407.054,257.105 405.5,258.5C 402.888,259.371 400.221,260.037 397.5,260.5C 396.577,259.697 395.577,259.53 394.5,260C 392.808,261.307 391.475,262.807 390.5,264.5C 387.609,263.597 384.609,263.264 381.5,263.5C 381.833,262.833 382.167,262.167 382.5,261.5C 385.077,260.961 387.244,259.628 389,257.5C 391,256.833 393,256.167 395,255.5C 395.765,255.57 396.265,255.903 396.5,256.5 Z"/></g>
<g><path style="opacity:1" fill="#e1613a" d="M 449.5,257.5 C 462.67,259.558 475.337,263.225 487.5,268.5C 489.754,269.124 491.421,270.457 492.5,272.5C 488.856,270.123 484.856,269.289 480.5,270C 472.409,273.938 465.742,279.438 460.5,286.5C 455.107,277.76 450.107,268.76 445.5,259.5C 447.38,259.771 448.713,259.104 449.5,257.5 Z"/></g>
<g><path style="opacity:0.855" fill="#e9b8ad" d="M 450.5,254.5 C 450.833,254.5 451.167,254.5 451.5,254.5C 458.746,256.522 466.079,258.688 473.5,261C 478.534,263.047 483.2,265.547 487.5,268.5C 475.337,263.225 462.67,259.558 449.5,257.5C 449.557,256.391 449.89,255.391 450.5,254.5 Z"/></g>
<g><path style="opacity:1" fill="#d89971" d="M 343.5,255.5 C 342.694,256.728 341.694,257.728 340.5,258.5C 335.415,260.64 330.415,262.973 325.5,265.5C 324.833,265.5 324.5,265.833 324.5,266.5C 323.5,266.5 322.5,266.5 321.5,266.5C 321.088,264.027 322.088,262.694 324.5,262.5C 325.492,262.672 326.158,262.338 326.5,261.5C 328.703,261.396 330.703,260.73 332.5,259.5C 334.5,258.833 336.5,258.167 338.5,257.5C 340.05,256.559 341.716,255.893 343.5,255.5 Z"/></g>
<g><path style="opacity:1" fill="#d85f3a" d="M 364.5,261.5 C 361.615,261.194 358.948,261.527 356.5,262.5C 354.302,262.12 352.635,262.787 351.5,264.5C 350.508,264.328 349.842,264.662 349.5,265.5C 348.833,265.5 348.5,265.833 348.5,266.5C 347.5,266.833 346.833,267.5 346.5,268.5C 345.475,268.103 345.308,267.437 346,266.5C 347.397,264.93 348.897,263.596 350.5,262.5C 353.638,261.002 356.972,260.002 360.5,259.5C 362.171,259.668 363.504,260.335 364.5,261.5 Z"/></g>
<g><path style="opacity:1" fill="#a5a3a1" d="M 303.5,270.5 C 314.715,274.619 325.715,278.953 336.5,283.5C 335.215,285.659 333.548,286.326 331.5,285.5C 315.949,280.39 300.615,274.723 285.5,268.5C 283.631,267.835 281.631,267.169 279.5,266.5C 281,266.167 282.5,265.833 284,265.5C 290.693,266.454 297.193,268.12 303.5,270.5 Z"/></g>
<g><path style="opacity:1" fill="#c9543f" d="M 356.5,253.5 C 353.216,255.164 349.883,256.831 346.5,258.5C 342.254,259.745 339.254,262.412 337.5,266.5C 333.407,266.204 329.407,265.871 325.5,265.5C 330.415,262.973 335.415,260.64 340.5,258.5C 345.69,256.437 351.023,254.77 356.5,253.5 Z"/></g>
<g><path style="opacity:1" fill="#e39a8b" d="M 348.5,266.5 C 348.5,265.833 348.833,265.5 349.5,265.5C 353.401,264.857 356.734,265.857 359.5,268.5C 363.299,278.398 366.799,288.398 370,298.5C 372.5,302.833 375,307.167 377.5,311.5C 377.167,313.167 376.167,314.167 374.5,314.5C 363.703,315.867 353.036,317.867 342.5,320.5C 342.5,321.5 342.5,322.5 342.5,323.5C 342.5,323.833 342.5,324.167 342.5,324.5C 342.167,324.5 341.833,324.5 341.5,324.5C 341.5,321.833 341.5,319.167 341.5,316.5C 351.999,313.158 362.666,310.991 373.5,310C 371.666,307.797 369.832,305.63 368,303.5C 364.735,291.705 361.068,280.038 357,268.5C 354.435,266.821 351.602,266.154 348.5,266.5 Z"/></g>
<g><path style="opacity:1" fill="#241e09" d="M 277.5,265.5 C 278.404,266.209 278.737,267.209 278.5,268.5C 280.833,268.5 283.167,268.5 285.5,268.5C 300.615,274.723 315.949,280.39 331.5,285.5C 329.876,288.79 327.543,291.457 324.5,293.5C 319.14,298.528 313.807,303.528 308.5,308.5C 297.218,295.545 285.885,282.545 274.5,269.5C 275.826,268.358 276.826,267.024 277.5,265.5 Z"/></g>
<g><path style="opacity:1" fill="#d5725f" d="M 346.5,258.5 C 345.584,261.46 346.918,262.793 350.5,262.5C 348.897,263.596 347.397,264.93 346,266.5C 345.308,267.437 345.475,268.103 346.5,268.5C 345.833,269.5 345.167,270.5 344.5,271.5C 341.953,270.066 339.619,268.4 337.5,266.5C 339.254,262.412 342.254,259.745 346.5,258.5 Z"/></g>
<g><path style="opacity:1" fill="#e29492" d="M 348.5,266.5 C 351.602,266.154 354.435,266.821 357,268.5C 361.068,280.038 364.735,291.705 368,303.5C 369.832,305.63 371.666,307.797 373.5,310C 362.666,310.991 351.999,313.158 341.5,316.5C 340.5,316.5 339.5,316.5 338.5,316.5C 339.209,315.596 340.209,315.263 341.5,315.5C 341.33,314.178 341.663,313.011 342.5,312C 347.855,311.251 352.855,309.751 357.5,307.5C 358.117,307.611 358.617,307.944 359,308.5C 360.091,306.282 361.257,304.116 362.5,302C 357.809,290.93 353.309,279.764 349,268.5C 348.23,269.598 347.397,269.598 346.5,268.5C 346.833,267.5 347.5,266.833 348.5,266.5 Z"/></g>
<g><path style="opacity:1" fill="#e39a80" d="M 342.5,323.5 C 342.5,322.5 342.5,321.5 342.5,320.5C 353.036,317.867 363.703,315.867 374.5,314.5C 376.167,314.167 377.167,313.167 377.5,311.5C 375,307.167 372.5,302.833 370,298.5C 366.799,288.398 363.299,278.398 359.5,268.5C 356.734,265.857 353.401,264.857 349.5,265.5C 349.842,264.662 350.508,264.328 351.5,264.5C 357.15,262.407 361.317,264.074 364,269.5C 369.458,283.411 374.625,297.411 379.5,311.5C 379.61,313.374 378.944,314.874 377.5,316C 366.036,319.471 354.369,321.971 342.5,323.5 Z"/></g>
<g><path style="opacity:1" fill="#e16843" d="M 433.5,257.5 C 433.833,257.5 434.167,257.5 434.5,257.5C 440.195,268.184 445.862,278.85 451.5,289.5C 449.866,288.793 448.532,287.627 447.5,286C 446.5,285.333 445.5,285.333 444.5,286C 443.5,287.667 442.5,289.333 441.5,291C 435.37,294.3 429.37,297.8 423.5,301.5C 422.935,303.544 421.935,305.21 420.5,306.5C 419.833,306.5 419.5,306.167 419.5,305.5C 423.527,296.937 427.86,288.437 432.5,280C 424.343,279.97 416.343,281.137 408.5,283.5C 407.071,280.304 405.405,277.304 403.5,274.5C 401.5,269.833 399.5,265.167 397.5,260.5C 400.221,260.037 402.888,259.371 405.5,258.5C 409.988,259.166 414.654,259.499 419.5,259.5C 424.551,259.493 429.217,258.827 433.5,257.5 Z"/></g>
<g><path style="opacity:1" fill="#514839" d="M 305.5,269.5 C 304.508,269.328 303.842,269.662 303.5,270.5C 297.193,268.12 290.693,266.454 284,265.5C 282.5,265.833 281,266.167 279.5,266.5C 281.631,267.169 283.631,267.835 285.5,268.5C 283.167,268.5 280.833,268.5 278.5,268.5C 278.737,267.209 278.404,266.209 277.5,265.5C 277.167,265.5 276.833,265.5 276.5,265.5C 278.633,263.839 281.133,262.839 284,262.5C 291.557,264.006 298.724,266.339 305.5,269.5 Z"/></g>
<g><path style="opacity:1" fill="#eb7345" d="M 381.5,263.5 C 384.609,263.264 387.609,263.597 390.5,264.5C 390.5,265.167 390.5,265.833 390.5,266.5C 390.719,267.675 390.386,268.675 389.5,269.5C 383.837,271.151 380.17,274.817 378.5,280.5C 376.723,276.414 375.389,272.081 374.5,267.5C 376.008,265.493 377.842,263.826 380,262.5C 380.383,263.056 380.883,263.389 381.5,263.5 Z"/></g>
<g><path style="opacity:1" fill="#ef5c31" d="M 492.5,272.5 C 493.404,273.209 493.737,274.209 493.5,275.5C 491.026,291.952 484.692,306.619 474.5,319.5C 473.662,319.158 473.328,318.492 473.5,317.5C 478.664,310.837 482.498,303.504 485,295.5C 479.935,299.674 474.435,303.007 468.5,305.5C 467.538,302.261 466.205,299.261 464.5,296.5C 463.167,293.167 461.833,289.833 460.5,286.5C 465.742,279.438 472.409,273.938 480.5,270C 484.856,269.289 488.856,270.123 492.5,272.5 Z"/></g>
<g><path style="opacity:0.999" fill="#542d22" d="M 303.5,270.5 C 303.842,269.662 304.508,269.328 305.5,269.5C 316.978,272.771 328.312,276.437 339.5,280.5C 339.19,282.144 338.19,283.144 336.5,283.5C 325.715,278.953 314.715,274.619 303.5,270.5 Z"/></g>
<g><path style="opacity:1" fill="#e5905f" d="M 380.5,261.5 C 381.167,261.5 381.833,261.5 382.5,261.5C 382.167,262.167 381.833,262.833 381.5,263.5C 380.883,263.389 380.383,263.056 380,262.5C 377.842,263.826 376.008,265.493 374.5,267.5C 375.389,272.081 376.723,276.414 378.5,280.5C 378.846,284.852 380.512,288.519 383.5,291.5C 386.167,298.167 388.833,304.833 391.5,311.5C 389.685,315.479 386.685,318.312 382.5,320C 381,323.5 378.5,326 375,327.5C 374.536,328.094 374.369,328.761 374.5,329.5C 364.451,330.91 354.451,332.577 344.5,334.5C 343.699,332.958 343.366,331.292 343.5,329.5C 343.791,328.351 344.624,327.684 346,327.5C 356.952,326.206 367.452,323.373 377.5,319C 381.775,314.081 382.608,308.581 380,302.5C 375.22,289.49 370.053,276.657 364.5,264C 361.986,262.748 359.32,262.248 356.5,262.5C 358.948,261.527 361.615,261.194 364.5,261.5C 366.1,262.644 367.767,263.811 369.5,265C 369.043,265.414 368.709,265.914 368.5,266.5C 370.505,269.028 372.171,268.695 373.5,265.5C 372.777,263.218 372.443,260.884 372.5,258.5C 375.831,258.018 378.497,259.018 380.5,261.5 Z"/></g>
<g><path style="opacity:1" fill="#e0684f" d="M 390.5,266.5 C 394.01,272.187 397.01,278.187 399.5,284.5C 394.803,287.838 389.47,290.172 383.5,291.5C 380.512,288.519 378.846,284.852 378.5,280.5C 380.17,274.817 383.837,271.151 389.5,269.5C 390.386,268.675 390.719,267.675 390.5,266.5 Z"/></g>
<g><path style="opacity:1" fill="#e8d8d6" d="M 445.5,259.5 C 450.107,268.76 455.107,277.76 460.5,286.5C 461.833,289.833 463.167,293.167 464.5,296.5C 466.988,304.882 469.321,313.382 471.5,322C 471.333,322.5 471.167,323 471,323.5C 470.085,322.672 469.419,321.672 469,320.5C 468.329,321.252 467.496,321.586 466.5,321.5C 465.737,319.632 464.737,317.965 463.5,316.5C 462.108,312.051 460.441,307.718 458.5,303.5C 456.674,298.516 454.341,293.849 451.5,289.5C 445.862,278.85 440.195,268.184 434.5,257.5C 435.334,256.252 436.667,255.585 438.5,255.5C 441.844,255.197 444.178,256.53 445.5,259.5 Z"/></g>
<g><path style="opacity:1" fill="#6b5974" d="M 276.5,265.5 C 276.833,265.5 277.167,265.5 277.5,265.5C 276.826,267.024 275.826,268.358 274.5,269.5C 285.885,282.545 297.218,295.545 308.5,308.5C 308.5,308.833 308.5,309.167 308.5,309.5C 307.833,309.5 307.167,309.5 306.5,309.5C 295.911,296.678 285.078,284.012 274,271.5C 273.039,268.625 273.872,266.625 276.5,265.5 Z"/></g>
<g><path style="opacity:1" fill="#e4b3ac" d="M 419.5,305.5 C 415.866,298.232 412.199,290.899 408.5,283.5C 416.343,281.137 424.343,279.97 432.5,280C 427.86,288.437 423.527,296.937 419.5,305.5 Z"/></g>
<g><path style="opacity:1" fill="#db8497" d="M 346.5,268.5 C 347.397,269.598 348.23,269.598 349,268.5C 353.309,279.764 357.809,290.93 362.5,302C 361.257,304.116 360.091,306.282 359,308.5C 358.617,307.944 358.117,307.611 357.5,307.5C 356.056,299.496 353.056,292.163 348.5,285.5C 346.573,280.986 345.24,276.32 344.5,271.5C 345.167,270.5 345.833,269.5 346.5,268.5 Z"/></g>
<g><path style="opacity:1" fill="#e4b3af" d="M 399.5,284.5 C 402.833,290.5 406.167,296.5 409.5,302.5C 410.167,304.5 410.833,306.5 411.5,308.5C 404.894,309.147 398.561,310.813 392.5,313.5C 392.167,312.833 391.833,312.167 391.5,311.5C 388.833,304.833 386.167,298.167 383.5,291.5C 389.47,290.172 394.803,287.838 399.5,284.5 Z"/></g>
<g><path style="opacity:1" fill="#e26037" d="M 451.5,289.5 C 454.341,293.849 456.674,298.516 458.5,303.5C 456.968,302.323 455.468,300.989 454,299.5C 452.315,301.017 450.815,302.684 449.5,304.5C 443.704,307.191 437.704,309.357 431.5,311C 429.114,312.887 427.947,315.387 428,318.5C 427.31,317.262 426.81,317.262 426.5,318.5C 425.5,317.167 424.5,315.833 423.5,314.5C 422.5,311.833 421.5,309.167 420.5,306.5C 421.935,305.21 422.935,303.544 423.5,301.5C 429.37,297.8 435.37,294.3 441.5,291C 442.5,289.333 443.5,287.667 444.5,286C 445.5,285.333 446.5,285.333 447.5,286C 448.532,287.627 449.866,288.793 451.5,289.5 Z"/></g>
<g><path style="opacity:1" fill="#e5dee7" d="M 397.5,260.5 C 399.5,265.167 401.5,269.833 403.5,274.5C 406.638,285.119 410.638,295.453 415.5,305.5C 415.333,305.833 415.167,306.167 415,306.5C 412.966,305.279 411.133,303.945 409.5,302.5C 406.167,296.5 402.833,290.5 399.5,284.5C 397.01,278.187 394.01,272.187 390.5,266.5C 390.5,265.833 390.5,265.167 390.5,264.5C 391.475,262.807 392.808,261.307 394.5,260C 395.577,259.53 396.577,259.697 397.5,260.5 Z"/></g>
<g><path style="opacity:1" fill="#d45c64" d="M 325.5,265.5 C 329.407,265.871 333.407,266.204 337.5,266.5C 339.619,268.4 341.953,270.066 344.5,271.5C 345.24,276.32 346.573,280.986 348.5,285.5C 345.14,286.013 342.14,287.347 339.5,289.5C 341.078,290.298 342.744,290.798 344.5,291C 339.546,294.285 334.88,297.952 330.5,302C 332.058,302.21 333.391,302.71 334.5,303.5C 332.801,303.34 331.134,303.506 329.5,304C 322.922,309.414 316.922,315.247 311.5,321.5C 311.167,321.5 310.833,321.5 310.5,321.5C 309.167,321.5 307.833,321.5 306.5,321.5C 307.056,317.77 308.722,314.603 311.5,312C 310.956,311.283 310.289,310.783 309.5,310.5C 308.833,310.5 308.5,310.167 308.5,309.5C 308.5,309.167 308.5,308.833 308.5,308.5C 313.807,303.528 319.14,298.528 324.5,293.5C 323.797,295.716 322.464,297.549 320.5,299C 328.19,296.735 334.69,292.569 340,286.5C 340.833,284.833 341.667,283.167 342.5,281.5C 342.376,280.893 342.043,280.56 341.5,280.5C 335.251,276.589 329.585,271.922 324.5,266.5C 324.5,265.833 324.833,265.5 325.5,265.5 Z"/></g>
<g><path style="opacity:1" fill="#dc635c" d="M 348.5,285.5 C 353.056,292.163 356.056,299.496 357.5,307.5C 352.855,309.751 347.855,311.251 342.5,312C 341.663,313.011 341.33,314.178 341.5,315.5C 340.209,315.263 339.209,315.596 338.5,316.5C 335.167,316.833 331.833,317.167 328.5,317.5C 332.327,314.068 335.994,310.401 339.5,306.5C 338.06,305.048 336.394,304.048 334.5,303.5C 333.391,302.71 332.058,302.21 330.5,302C 334.88,297.952 339.546,294.285 344.5,291C 342.744,290.798 341.078,290.298 339.5,289.5C 342.14,287.347 345.14,286.013 348.5,285.5 Z"/></g>
<g><path style="opacity:0.02" fill="#fac8bd" d="M 493.5,287.5 C 492.939,292.176 491.606,296.509 489.5,300.5C 490.08,295.823 491.413,291.49 493.5,287.5 Z"/></g>
<g><path style="opacity:1" fill="#cf8286" d="M 339.5,280.5 C 340.167,280.5 340.833,280.5 341.5,280.5C 342.043,280.56 342.376,280.893 342.5,281.5C 341.667,283.167 340.833,284.833 340,286.5C 334.69,292.569 328.19,296.735 320.5,299C 322.464,297.549 323.797,295.716 324.5,293.5C 327.543,291.457 329.876,288.79 331.5,285.5C 333.548,286.326 335.215,285.659 336.5,283.5C 338.19,283.144 339.19,282.144 339.5,280.5 Z"/></g>
<g><path style="opacity:1" fill="#de7de6" d="M 334.5,303.5 C 336.394,304.048 338.06,305.048 339.5,306.5C 335.994,310.401 332.327,314.068 328.5,317.5C 322.913,319.085 317.247,320.418 311.5,321.5C 316.922,315.247 322.922,309.414 329.5,304C 331.134,303.506 332.801,303.34 334.5,303.5 Z"/></g>
<g><path style="opacity:1" fill="#f9a675" d="M 473.5,317.5 C 471.833,313.5 470.167,309.5 468.5,305.5C 474.435,303.007 479.935,299.674 485,295.5C 482.498,303.504 478.664,310.837 473.5,317.5 Z"/></g>
<g><path style="opacity:1" fill="#f78f78" d="M 493.5,275.5 C 494.726,279.367 494.726,283.367 493.5,287.5C 491.413,291.49 490.08,295.823 489.5,300.5C 485.879,306.833 482.545,313.499 479.5,320.5C 476.968,324.64 475.302,324.307 474.5,319.5C 484.692,306.619 491.026,291.952 493.5,275.5 Z"/></g>
<g><path style="opacity:1" fill="#ea5930" d="M 458.5,303.5 C 460.441,307.718 462.108,312.051 463.5,316.5C 459.569,321.77 455.236,326.77 450.5,331.5C 446.348,335.323 441.681,338.323 436.5,340.5C 432.621,333.409 429.288,326.076 426.5,318.5C 426.81,317.262 427.31,317.262 428,318.5C 427.947,315.387 429.114,312.887 431.5,311C 437.704,309.357 443.704,307.191 449.5,304.5C 450.815,302.684 452.315,301.017 454,299.5C 455.468,300.989 456.968,302.323 458.5,303.5 Z"/></g>
<g><path style="opacity:1" fill="#db5934" d="M 411.5,308.5 C 417.71,320.254 423.377,332.254 428.5,344.5C 428.443,345.609 428.11,346.609 427.5,347.5C 427.167,347.5 426.833,347.5 426.5,347.5C 425.788,345.072 424.788,342.739 423.5,340.5C 420.289,337.451 417.623,333.951 415.5,330C 411.164,330.983 406.831,332.316 402.5,334C 400.833,334.667 399.167,334.667 397.5,334C 396.151,328.575 394.985,323.075 394,317.5C 393.802,319.382 393.302,321.048 392.5,322.5C 392.5,321.833 392.5,321.167 392.5,320.5C 392.5,318.167 392.5,315.833 392.5,313.5C 398.561,310.813 404.894,309.147 411.5,308.5 Z"/></g>
<g><path style="opacity:1" fill="#f08951" d="M 391.5,311.5 C 391.833,312.167 392.167,312.833 392.5,313.5C 392.5,315.833 392.5,318.167 392.5,320.5C 387.661,325.586 381.661,328.586 374.5,329.5C 374.369,328.761 374.536,328.094 375,327.5C 378.5,326 381,323.5 382.5,320C 386.685,318.312 389.685,315.479 391.5,311.5 Z"/></g>
<g><path style="opacity:0.945" fill="#dfdbeb" d="M 205.5,315.5 C 208.325,315.162 210.492,316.162 212,318.5C 212.134,323.012 209.967,324.512 205.5,323C 202.914,320.506 202.914,318.006 205.5,315.5 Z"/></g>
<g><path style="opacity:1" fill="#d995a6" d="M 309.5,310.5 C 310.289,310.783 310.956,311.283 311.5,312C 308.722,314.603 307.056,317.77 306.5,321.5C 307.833,321.5 309.167,321.5 310.5,321.5C 309.791,322.404 308.791,322.737 307.5,322.5C 306.5,322.5 305.5,322.5 304.5,322.5C 304.337,320.143 304.503,317.81 305,315.5C 307.415,314.589 308.915,312.922 309.5,310.5 Z"/></g>
<g><path style="opacity:1" fill="#e2bfe6" d="M 338.5,316.5 C 339.5,316.5 340.5,316.5 341.5,316.5C 341.5,319.167 341.5,321.833 341.5,324.5C 341.5,327.167 341.5,329.833 341.5,332.5C 337.815,333.004 334.149,333.67 330.5,334.5C 327.301,331.899 324.301,332.233 321.5,335.5C 316.508,343.786 313.508,352.786 312.5,362.5C 312.5,363.167 312.167,363.5 311.5,363.5C 310.032,360.722 309.199,357.722 309,354.5C 308.167,343.846 307.667,333.18 307.5,322.5C 308.791,322.737 309.791,322.404 310.5,321.5C 310.833,321.5 311.167,321.5 311.5,321.5C 317.247,320.418 322.913,319.085 328.5,317.5C 331.833,317.167 335.167,316.833 338.5,316.5 Z"/></g>
<g><path style="opacity:0.865" fill="#ddd7ea" d="M 261.5,315.5 C 264.579,315.804 267.413,316.804 270,318.5C 271.292,323.704 269.459,325.704 264.5,324.5C 263.185,322.684 261.685,321.017 260,319.5C 259.7,317.934 260.2,316.601 261.5,315.5 Z"/></g>
<g><path style="opacity:1" fill="#f7cdbc" d="M 464.5,296.5 C 466.205,299.261 467.538,302.261 468.5,305.5C 470.167,309.5 471.833,313.5 473.5,317.5C 473.328,318.492 473.662,319.158 474.5,319.5C 475.302,324.307 476.968,324.64 479.5,320.5C 482.545,313.499 485.879,306.833 489.5,300.5C 486.117,312.154 481.283,323.154 475,333.5C 474.292,334.381 473.458,335.047 472.5,335.5C 471.87,333.25 470.87,331.25 469.5,329.5C 469.443,328.391 469.11,327.391 468.5,326.5C 467.559,324.95 466.893,323.284 466.5,321.5C 467.496,321.586 468.329,321.252 469,320.5C 469.419,321.672 470.085,322.672 471,323.5C 471.167,323 471.333,322.5 471.5,322C 469.321,313.382 466.988,304.882 464.5,296.5 Z"/></g>
<g><path style="opacity:1" fill="#e0956e" d="M 356.5,262.5 C 359.32,262.248 361.986,262.748 364.5,264C 370.053,276.657 375.22,289.49 380,302.5C 382.608,308.581 381.775,314.081 377.5,319C 367.452,323.373 356.952,326.206 346,327.5C 344.624,327.684 343.791,328.351 343.5,329.5C 343.167,329.5 342.833,329.5 342.5,329.5C 342.5,327.833 342.5,326.167 342.5,324.5C 342.5,324.167 342.5,323.833 342.5,323.5C 354.369,321.971 366.036,319.471 377.5,316C 378.944,314.874 379.61,313.374 379.5,311.5C 374.625,297.411 369.458,283.411 364,269.5C 361.317,264.074 357.15,262.407 351.5,264.5C 352.635,262.787 354.302,262.12 356.5,262.5 Z"/></g>
<g><path style="opacity:1" fill="#f8a376" d="M 463.5,316.5 C 464.737,317.965 465.737,319.632 466.5,321.5C 466.893,323.284 467.559,324.95 468.5,326.5C 466.33,327.838 464.664,329.672 463.5,332C 458.98,332.814 454.646,332.647 450.5,331.5C 455.236,326.77 459.569,321.77 463.5,316.5 Z"/></g>
<g><path style="opacity:1" fill="#e1d3d2" d="M 403.5,274.5 C 405.405,277.304 407.071,280.304 408.5,283.5C 412.199,290.899 415.866,298.232 419.5,305.5C 419.5,306.167 419.833,306.5 420.5,306.5C 421.5,309.167 422.5,311.833 423.5,314.5C 423.338,316.527 423.505,318.527 424,320.5C 428.474,332.294 432.308,344.294 435.5,356.5C 435.167,356.5 434.833,356.5 434.5,356.5C 433.008,352.182 431.008,348.182 428.5,344.5C 423.377,332.254 417.71,320.254 411.5,308.5C 410.833,306.5 410.167,304.5 409.5,302.5C 411.133,303.945 412.966,305.279 415,306.5C 415.167,306.167 415.333,305.833 415.5,305.5C 410.638,295.453 406.638,285.119 403.5,274.5 Z"/></g>
<g><path style="opacity:1" fill="#dedaf2" d="M 158.5,324.5 C 164.704,324.314 166.037,326.814 162.5,332C 156.812,331.79 155.479,329.29 158.5,324.5 Z"/></g>
<g><path style="opacity:1" fill="#e1522d" d="M 426.5,347.5 C 417.847,352.327 408.847,356.327 399.5,359.5C 395.214,351.262 391.214,342.929 387.5,334.5C 389.144,331.996 390.644,329.329 392,326.5C 392.49,325.207 392.657,323.873 392.5,322.5C 393.302,321.048 393.802,319.382 394,317.5C 394.985,323.075 396.151,328.575 397.5,334C 399.167,334.667 400.833,334.667 402.5,334C 406.831,332.316 411.164,330.983 415.5,330C 417.623,333.951 420.289,337.451 423.5,340.5C 424.788,342.739 425.788,345.072 426.5,347.5 Z"/></g>
<g><path style="opacity:1" fill="#dedaea" d="M 236.5,327.5 C 240.5,326.833 242.167,328.5 241.5,332.5C 239.833,332.5 238.167,332.5 236.5,332.5C 236.5,330.833 236.5,329.167 236.5,327.5 Z"/></g>
<g><path style="opacity:1" fill="#e67242" d="M 392.5,320.5 C 392.5,321.167 392.5,321.833 392.5,322.5C 392.657,323.873 392.49,325.207 392,326.5C 390.644,329.329 389.144,331.996 387.5,334.5C 385.5,334.833 383.5,335.167 381.5,335.5C 370.908,337.776 360.242,339.776 349.5,341.5C 347.886,341.197 346.552,340.53 345.5,339.5C 344.962,337.883 344.629,336.216 344.5,334.5C 354.451,332.577 364.451,330.91 374.5,329.5C 381.661,328.586 387.661,325.586 392.5,320.5 Z"/></g>
<g><path style="opacity:0.999" fill="#dfd4e0" d="M 306.5,309.5 C 307.167,309.5 307.833,309.5 308.5,309.5C 308.5,310.167 308.833,310.5 309.5,310.5C 308.915,312.922 307.415,314.589 305,315.5C 304.503,317.81 304.337,320.143 304.5,322.5C 305.5,322.5 306.5,322.5 307.5,322.5C 307.667,333.18 308.167,343.846 309,354.5C 309.199,357.722 310.032,360.722 311.5,363.5C 311.893,365.284 312.559,366.95 313.5,368.5C 309.779,370.26 307.112,369.26 305.5,365.5C 305.041,362.123 304.374,358.789 303.5,355.5C 301.142,355.253 299.142,355.919 297.5,357.5C 296.662,357.158 296.328,356.492 296.5,355.5C 297.997,354.694 299.664,354.028 301.5,353.5C 302.492,349.217 302.826,344.884 302.5,340.5C 298.236,340.344 294.236,341.011 290.5,342.5C 289.163,341.685 288.163,340.518 287.5,339C 286.207,338.51 284.873,338.343 283.5,338.5C 283.5,340.5 283.5,342.5 283.5,344.5C 281.426,342.285 281.093,339.785 282.5,337C 284.167,336.333 285.833,336.333 287.5,337C 288.645,338.859 290.312,339.693 292.5,339.5C 295.442,339.146 298.275,338.48 301,337.5C 301.233,330.599 301.9,323.599 303,316.5C 303.959,314.047 305.126,311.714 306.5,309.5 Z"/></g>
<g><path style="opacity:1" fill="#e9b1cc" d="M 341.5,324.5 C 341.833,324.5 342.167,324.5 342.5,324.5C 342.5,326.167 342.5,327.833 342.5,329.5C 342.714,331.144 342.38,332.644 341.5,334C 337.152,335.583 332.818,336.749 328.5,337.5C 320.303,337.713 316.97,341.88 318.5,350C 317.589,353.145 316.755,356.312 316,359.5C 315.241,361.063 314.074,362.063 312.5,362.5C 313.508,352.786 316.508,343.786 321.5,335.5C 324.301,332.233 327.301,331.899 330.5,334.5C 334.149,333.67 337.815,333.004 341.5,332.5C 341.5,329.833 341.5,327.167 341.5,324.5 Z"/></g>
<g><path style="opacity:1" fill="#f3d1c6" d="M 423.5,314.5 C 424.5,315.833 425.5,317.167 426.5,318.5C 429.288,326.076 432.621,333.409 436.5,340.5C 438.229,344.958 440.229,349.291 442.5,353.5C 443.167,354.833 443.833,356.167 444.5,357.5C 444.932,358.71 445.599,359.71 446.5,360.5C 446.833,360.5 447.167,360.5 447.5,360.5C 449.164,362.679 448.83,364.512 446.5,366C 444.99,366.85 443.49,367.683 442,368.5C 440.989,367.944 440.156,367.278 439.5,366.5C 439.082,365.778 438.416,365.278 437.5,365C 438.774,364.023 438.774,363.189 437.5,362.5C 436.833,360.5 436.167,358.5 435.5,356.5C 432.308,344.294 428.474,332.294 424,320.5C 423.505,318.527 423.338,316.527 423.5,314.5 Z"/></g>
<g><path style="opacity:1" fill="#e089a6" d="M 342.5,329.5 C 342.833,329.5 343.167,329.5 343.5,329.5C 343.366,331.292 343.699,332.958 344.5,334.5C 344.629,336.216 344.962,337.883 345.5,339.5C 339.292,340.198 333.292,341.531 327.5,343.5C 328.32,341.386 328.653,339.386 328.5,337.5C 332.818,336.749 337.152,335.583 341.5,334C 342.38,332.644 342.714,331.144 342.5,329.5 Z"/></g>
<g><path style="opacity:1" fill="#e1dff0" d="M 222.5,355.5 C 218.896,358.602 215.396,361.935 212,365.5C 211.805,367.207 211.805,368.874 212,370.5C 209.985,371.697 208.151,373.03 206.5,374.5C 203.558,376.217 200.391,377.55 197,378.5C 193.635,377.565 190.468,376.232 187.5,374.5C 188.078,373.129 188.078,371.296 187.5,369C 183.788,366.487 182.622,362.987 184,358.5C 185.5,356.333 187,354.167 188.5,352C 187.122,350.287 185.455,348.953 183.5,348C 177.009,347.094 170.509,346.26 164,345.5C 161.456,345.384 159.289,346.217 157.5,348C 150.066,354.769 142.066,360.769 133.5,366C 135.983,368.406 138.65,370.573 141.5,372.5C 139.664,373.919 137.664,375.086 135.5,376C 136.328,376.915 137.328,377.581 138.5,378C 137.944,378.383 137.611,378.883 137.5,379.5C 134.5,380.833 131.5,380.833 128.5,379.5C 125.692,377.084 126.025,375.084 129.5,373.5C 128.833,372.5 128.167,371.5 127.5,370.5C 128.945,368.937 130.611,367.604 132.5,366.5C 131.167,364.833 129.833,363.167 128.5,361.5C 132.128,358.678 135.795,355.845 139.5,353C 138.978,352.439 138.645,351.772 138.5,351C 139.217,348.341 140.217,345.841 141.5,343.5C 141.182,342.353 140.516,341.519 139.5,341C 140.737,340.768 141.737,340.268 142.5,339.5C 148.392,338.478 154.392,338.811 160.5,340.5C 169.898,337.732 179.232,337.899 188.5,341C 199.824,346.17 211.157,351.004 222.5,355.5 Z"/></g>
<g><path style="opacity:1" fill="#f47450" d="M 468.5,326.5 C 469.11,327.391 469.443,328.391 469.5,329.5C 461.747,338.921 452.747,346.921 442.5,353.5C 440.229,349.291 438.229,344.958 436.5,340.5C 441.681,338.323 446.348,335.323 450.5,331.5C 454.646,332.647 458.98,332.814 463.5,332C 464.664,329.672 466.33,327.838 468.5,326.5 Z"/></g>
<g><path style="opacity:1" fill="#cb2c1d" d="M 381.5,335.5 C 381.833,336.833 382.167,338.167 382.5,339.5C 367.432,343.399 352.099,345.233 336.5,345C 332.836,345.917 329.67,347.75 327,350.5C 326.51,349.207 326.343,347.873 326.5,346.5C 326.557,345.391 326.89,344.391 327.5,343.5C 333.292,341.531 339.292,340.198 345.5,339.5C 346.552,340.53 347.886,341.197 349.5,341.5C 360.242,339.776 370.908,337.776 381.5,335.5 Z"/></g>
<g><path style="opacity:1" fill="#e5c7c2" d="M 387.5,334.5 C 391.214,342.929 395.214,351.262 399.5,359.5C 400.833,362.167 402.167,364.833 403.5,367.5C 404.833,370.167 406.167,372.833 407.5,375.5C 408.167,376.833 408.833,378.167 409.5,379.5C 409.856,381.19 410.856,382.19 412.5,382.5C 411.27,385.947 408.936,386.947 405.5,385.5C 402.528,386.32 399.861,387.653 397.5,389.5C 397.672,388.508 397.338,387.842 396.5,387.5C 398.076,385.269 400.243,383.603 403,382.5C 403.599,380.465 403.099,378.799 401.5,377.5C 399.341,371.849 396.674,366.516 393.5,361.5C 390.341,353.849 386.675,346.516 382.5,339.5C 382.167,338.167 381.833,336.833 381.5,335.5C 383.5,335.167 385.5,334.833 387.5,334.5 Z"/></g>
<g><path style="opacity:1" fill="#f5907e" d="M 469.5,329.5 C 470.87,331.25 471.87,333.25 472.5,335.5C 469.858,339.775 466.525,343.442 462.5,346.5C 463.728,343.925 465.395,341.592 467.5,339.5C 467.333,339.167 467.167,338.833 467,338.5C 461.918,342.577 457.085,347.077 452.5,352C 449.631,353.596 446.964,355.43 444.5,357.5C 443.833,356.167 443.167,354.833 442.5,353.5C 452.747,346.921 461.747,338.921 469.5,329.5 Z"/></g>
<g><path style="opacity:1" fill="#4f4b4d" d="M 296.5,355.5 C 294.264,351.355 292.264,347.022 290.5,342.5C 294.236,341.011 298.236,340.344 302.5,340.5C 302.826,344.884 302.492,349.217 301.5,353.5C 299.664,354.028 297.997,354.694 296.5,355.5 Z"/></g>
<g><path style="opacity:1" fill="#dad7f5" d="M 142.5,339.5 C 141.737,340.268 140.737,340.768 139.5,341C 140.516,341.519 141.182,342.353 141.5,343.5C 140.217,345.841 139.217,348.341 138.5,351C 138.645,351.772 138.978,352.439 139.5,353C 135.795,355.845 132.128,358.678 128.5,361.5C 129.833,363.167 131.167,364.833 132.5,366.5C 130.611,367.604 128.945,368.937 127.5,370.5C 128.167,371.5 128.833,372.5 129.5,373.5C 126.025,375.084 125.692,377.084 128.5,379.5C 125.215,380.089 124.882,381.256 127.5,383C 125.519,383.605 125.185,384.605 126.5,386C 125.906,386.464 125.239,386.631 124.5,386.5C 123.226,385.811 123.226,384.977 124.5,384C 122.114,382.113 120.947,379.613 121,376.5C 118.068,373.396 116.068,369.729 115,365.5C 114.667,365.167 114.333,364.833 114,364.5C 113.804,366.286 112.971,367.619 111.5,368.5C 109.85,365.111 107.85,362.111 105.5,359.5C 109.386,350.451 116.053,344.284 125.5,341C 131.101,339.783 136.768,339.283 142.5,339.5 Z"/></g>
<g><path style="opacity:1" fill="#e0dde3" d="M 187.5,374.5 C 181.775,378.481 175.942,378.481 170,374.5C 164.571,374.865 159.071,374.865 153.5,374.5C 153.167,374.667 152.833,374.833 152.5,375C 153.218,377.461 153.885,379.961 154.5,382.5C 152.997,383.052 151.331,383.052 149.5,382.5C 147.248,381.667 145.081,381.667 143,382.5C 141.22,381.361 139.386,380.361 137.5,379.5C 137.611,378.883 137.944,378.383 138.5,378C 137.328,377.581 136.328,376.915 135.5,376C 137.664,375.086 139.664,373.919 141.5,372.5C 138.65,370.573 135.983,368.406 133.5,366C 142.066,360.769 150.066,354.769 157.5,348C 159.289,346.217 161.456,345.384 164,345.5C 170.509,346.26 177.009,347.094 183.5,348C 185.455,348.953 187.122,350.287 188.5,352C 187,354.167 185.5,356.333 184,358.5C 182.622,362.987 183.788,366.487 187.5,369C 188.078,371.296 188.078,373.129 187.5,374.5 Z"/></g>
<g><path style="opacity:1" fill="#ec6749" d="M 426.5,347.5 C 426.833,347.5 427.167,347.5 427.5,347.5C 428.942,350.22 430.275,353.054 431.5,356C 431.355,356.772 431.022,357.439 430.5,358C 426.863,359.371 423.53,361.204 420.5,363.5C 414.541,363.822 408.874,365.156 403.5,367.5C 402.167,364.833 400.833,362.167 399.5,359.5C 408.847,356.327 417.847,352.327 426.5,347.5 Z"/></g>
<g><path style="opacity:1" fill="#f7aea0" d="M 462.5,346.5 C 458.564,348.766 455.231,351.766 452.5,355.5C 452.5,356.167 452.167,356.5 451.5,356.5C 449.251,357.08 447.585,358.413 446.5,360.5C 445.599,359.71 444.932,358.71 444.5,357.5C 446.964,355.43 449.631,353.596 452.5,352C 457.085,347.077 461.918,342.577 467,338.5C 467.167,338.833 467.333,339.167 467.5,339.5C 465.395,341.592 463.728,343.925 462.5,346.5 Z"/></g>
<g><path style="opacity:1" fill="#db70c1" d="M 288.5,351.5 C 287.263,350.035 286.263,348.368 285.5,346.5C 285.369,345.761 285.536,345.094 286,344.5C 287.903,346.441 288.736,348.774 288.5,351.5 Z"/></g>
<g><path style="opacity:1" fill="#f0a6ba" d="M 328.5,337.5 C 328.653,339.386 328.32,341.386 327.5,343.5C 326.89,344.391 326.557,345.391 326.5,346.5C 325.185,345.524 323.852,344.524 322.5,343.5C 322.167,343.833 321.833,344.167 321.5,344.5C 323.946,345.427 324.779,347.094 324,349.5C 322.867,347.789 321.367,347.289 319.5,348C 322.231,350.897 323.231,354.397 322.5,358.5C 321.833,358.5 321.5,358.833 321.5,359.5C 320.833,360.833 320.167,362.167 319.5,363.5C 318.864,365.795 317.531,367.461 315.5,368.5C 314.833,368.5 314.167,368.5 313.5,368.5C 312.559,366.95 311.893,365.284 311.5,363.5C 312.167,363.5 312.5,363.167 312.5,362.5C 314.074,362.063 315.241,361.063 316,359.5C 316.755,356.312 317.589,353.145 318.5,350C 316.97,341.88 320.303,337.713 328.5,337.5 Z"/></g>
<g><path style="opacity:1" fill="#d44a2b" d="M 382.5,339.5 C 386.675,346.516 390.341,353.849 393.5,361.5C 393.423,362.75 392.756,363.583 391.5,364C 386.167,365.667 380.833,367.333 375.5,369C 373.071,369.703 370.738,369.537 368.5,368.5C 361.72,363.257 355.053,357.757 348.5,352C 341.947,349.264 339.114,351.43 340,358.5C 345.297,363.215 350.797,367.548 356.5,371.5C 350.572,374.393 344.239,375.56 337.5,375C 335.04,373.542 332.873,371.709 331,369.5C 328.63,365.319 325.797,361.652 322.5,358.5C 323.231,354.397 322.231,350.897 319.5,348C 321.367,347.289 322.867,347.789 324,349.5C 324.779,347.094 323.946,345.427 321.5,344.5C 321.833,344.167 322.167,343.833 322.5,343.5C 323.852,344.524 325.185,345.524 326.5,346.5C 326.343,347.873 326.51,349.207 327,350.5C 329.67,347.75 332.836,345.917 336.5,345C 352.099,345.233 367.432,343.399 382.5,339.5 Z"/></g>
<g><path style="opacity:0.086" fill="#d75845" d="M 462.5,346.5 C 459.769,350.234 456.436,353.234 452.5,355.5C 455.231,351.766 458.564,348.766 462.5,346.5 Z"/></g>
<g><path style="opacity:1" fill="#d65f59" d="M 290.5,342.5 C 292.264,347.022 294.264,351.355 296.5,355.5C 296.328,356.492 296.662,357.158 297.5,357.5C 297.5,357.833 297.5,358.167 297.5,358.5C 296.596,359.209 296.263,360.209 296.5,361.5C 298.431,363.794 299.264,366.461 299,369.5C 298.081,366.598 297.248,366.265 296.5,368.5C 295.833,367.833 295.167,367.167 294.5,366.5C 292.477,361.413 290.477,356.413 288.5,351.5C 288.736,348.774 287.903,346.441 286,344.5C 285.536,345.094 285.369,345.761 285.5,346.5C 284.833,345.833 284.167,345.167 283.5,344.5C 283.5,342.5 283.5,340.5 283.5,338.5C 284.873,338.343 286.207,338.51 287.5,339C 288.163,340.518 289.163,341.685 290.5,342.5 Z"/></g>
<g><path style="opacity:1" fill="#e1ddeb" d="M 287.5,355.5 C 287.5,355.833 287.5,356.167 287.5,356.5C 286.357,357.611 285.357,358.777 284.5,360C 287.327,365.952 290.661,371.452 294.5,376.5C 294.459,378.745 293.625,379.412 292,378.5C 286.819,385.784 280.152,388.118 272,385.5C 264.811,388.505 257.311,390.005 249.5,390C 255.243,380.75 263.41,377.916 274,381.5C 275.984,381.259 277.817,380.592 279.5,379.5C 279.463,373.929 279.629,368.262 280,362.5C 279.167,363.333 278.333,364.167 277.5,365C 272.833,365.333 268.167,365.667 263.5,366C 263.41,374.119 259.077,378.286 250.5,378.5C 247.023,378.857 244.023,377.857 241.5,375.5C 239.854,378.983 237.521,379.483 234.5,377C 231.757,373.775 230.424,369.942 230.5,365.5C 231.688,366.684 232.855,366.684 234,365.5C 235.93,359.804 238.764,354.637 242.5,350C 254.122,343.166 263.455,345.666 270.5,357.5C 275.819,354.353 281.485,353.686 287.5,355.5 Z"/></g>
<g><path style="opacity:1" fill="#de9e9b" d="M 296.5,361.5 C 296.649,362.552 296.483,363.552 296,364.5C 294.294,360.921 292.461,357.421 290.5,354C 291.996,353.493 293.163,353.993 294,355.5C 294.24,357.852 295.073,359.852 296.5,361.5 Z"/></g>
<g><path style="opacity:0.2" fill="#db4f3c" d="M 451.5,356.5 C 450.5,358.167 449.167,359.5 447.5,360.5C 447.167,360.5 446.833,360.5 446.5,360.5C 447.585,358.413 449.251,357.08 451.5,356.5 Z"/></g>
<g><path style="opacity:1" fill="#d099b2" d="M 283.5,344.5 C 284.167,345.167 284.833,345.833 285.5,346.5C 286.263,348.368 287.263,350.035 288.5,351.5C 290.477,356.413 292.477,361.413 294.5,366.5C 293.504,366.586 292.671,366.252 292,365.5C 290.047,362.745 288.88,359.745 288.5,356.5C 288.5,355.833 288.167,355.5 287.5,355.5C 286.153,351.788 284.82,348.122 283.5,344.5 Z"/></g>
<g><path style="opacity:1" fill="#ceb8ce" d="M 287.5,356.5 C 287.833,356.5 288.167,356.5 288.5,356.5C 288.88,359.745 290.047,362.745 292,365.5C 292.671,366.252 293.504,366.586 294.5,366.5C 295.167,367.167 295.833,367.833 296.5,368.5C 297.167,370.5 297.833,372.5 298.5,374.5C 300.562,379.625 302.896,384.625 305.5,389.5C 305.5,389.833 305.5,390.167 305.5,390.5C 304.5,390.5 303.5,390.5 302.5,390.5C 301.952,388.374 301.285,386.374 300.5,384.5C 300.34,382.847 299.674,381.514 298.5,380.5C 297.5,378.833 296.167,377.5 294.5,376.5C 290.661,371.452 287.327,365.952 284.5,360C 285.357,358.777 286.357,357.611 287.5,356.5 Z"/></g>
<g><path style="opacity:1" fill="#e4dfe4" d="M 222.5,355.5 C 226.276,357.943 228.943,361.276 230.5,365.5C 230.424,369.942 231.757,373.775 234.5,377C 237.521,379.483 239.854,378.983 241.5,375.5C 244.023,377.857 247.023,378.857 250.5,378.5C 259.077,378.286 263.41,374.119 263.5,366C 268.167,365.667 272.833,365.333 277.5,365C 278.333,364.167 279.167,363.333 280,362.5C 279.629,368.262 279.463,373.929 279.5,379.5C 277.817,380.592 275.984,381.259 274,381.5C 263.41,377.916 255.243,380.75 249.5,390C 257.311,390.005 264.811,388.505 272,385.5C 280.152,388.118 286.819,385.784 292,378.5C 293.625,379.412 294.459,378.745 294.5,376.5C 296.167,377.5 297.5,378.833 298.5,380.5C 295.112,380.874 293.278,382.874 293,386.5C 290.094,389.037 286.927,391.204 283.5,393C 280.824,392.966 278.157,392.466 275.5,391.5C 274.579,393.756 272.912,394.756 270.5,394.5C 270.5,396.5 270.5,398.5 270.5,400.5C 269.5,400.5 268.5,400.5 267.5,400.5C 267.5,402.167 267.5,403.833 267.5,405.5C 261.195,404.411 254.861,403.577 248.5,403C 246.242,407.541 245.075,412.375 245,417.5C 244,416.5 243,415.5 242,414.5C 241.481,415.516 240.647,416.182 239.5,416.5C 237.121,415.558 234.954,414.225 233,412.5C 230.36,414.524 227.527,414.857 224.5,413.5C 225.5,410.833 226.5,408.167 227.5,405.5C 226.833,405.167 226.167,404.833 225.5,404.5C 226.309,402.929 226.643,401.262 226.5,399.5C 226.747,396.061 226.414,392.728 225.5,389.5C 230.144,383.892 231.477,377.559 229.5,370.5C 227.807,372.027 225.973,373.36 224,374.5C 223.505,376.473 223.338,378.473 223.5,380.5C 221.833,380.5 220.167,380.5 218.5,380.5C 218.5,381.5 218.5,382.5 218.5,383.5C 217.167,383.5 215.833,383.5 214.5,383.5C 214.475,380.821 213.142,379.488 210.5,379.5C 210.803,376.412 209.47,374.746 206.5,374.5C 208.151,373.03 209.985,371.697 212,370.5C 211.805,368.874 211.805,367.207 212,365.5C 215.396,361.935 218.896,358.602 222.5,355.5 Z"/></g>
<g><path style="opacity:1" fill="#d5a2c1" d="M 305.5,365.5 C 304.71,366.401 303.71,367.068 302.5,367.5C 300.595,364.696 298.929,361.696 297.5,358.5C 297.5,358.167 297.5,357.833 297.5,357.5C 299.142,355.919 301.142,355.253 303.5,355.5C 304.374,358.789 305.041,362.123 305.5,365.5 Z"/></g>
<g><path style="opacity:1" fill="#cdb8b5" d="M 368.5,368.5 C 368.846,374.839 366.18,376.839 360.5,374.5C 359.205,373.512 357.872,372.512 356.5,371.5C 350.797,367.548 345.297,363.215 340,358.5C 339.114,351.43 341.947,349.264 348.5,352C 355.053,357.757 361.72,363.257 368.5,368.5 Z"/></g>
<g><path style="opacity:1" fill="#ed725d" d="M 428.5,344.5 C 431.008,348.182 433.008,352.182 434.5,356.5C 434.896,359.044 434.229,361.211 432.5,363C 423.57,366.132 415.236,370.298 407.5,375.5C 406.167,372.833 404.833,370.167 403.5,367.5C 408.874,365.156 414.541,363.822 420.5,363.5C 423.53,361.204 426.863,359.371 430.5,358C 431.022,357.439 431.355,356.772 431.5,356C 430.275,353.054 428.942,350.22 427.5,347.5C 428.11,346.609 428.443,345.609 428.5,344.5 Z"/></g>
<g><path style="opacity:1" fill="#b82f36" d="M 321.5,359.5 C 323.977,362.438 325.977,365.771 327.5,369.5C 326.757,370.182 326.091,370.849 325.5,371.5C 323.885,368.55 321.885,365.884 319.5,363.5C 320.167,362.167 320.833,360.833 321.5,359.5 Z"/></g>
<g><path style="opacity:1" fill="#4c4141" d="M 305.5,365.5 C 307.112,369.26 309.779,370.26 313.5,368.5C 314.167,368.5 314.833,368.5 315.5,368.5C 315.5,369.167 315.5,369.833 315.5,370.5C 316.038,372.117 316.371,373.784 316.5,375.5C 314.371,377.95 311.704,379.617 308.5,380.5C 306.229,376.291 304.229,371.958 302.5,367.5C 303.71,367.068 304.71,366.401 305.5,365.5 Z"/></g>
<g><path style="opacity:1" fill="#d0432c" d="M 297.5,358.5 C 298.929,361.696 300.595,364.696 302.5,367.5C 304.229,371.958 306.229,376.291 308.5,380.5C 308.557,381.609 308.89,382.609 309.5,383.5C 309.154,385.363 308.154,386.196 306.5,386C 303.688,382.188 301.021,378.354 298.5,374.5C 297.833,372.5 297.167,370.5 296.5,368.5C 297.248,366.265 298.081,366.598 299,369.5C 299.264,366.461 298.431,363.794 296.5,361.5C 296.263,360.209 296.596,359.209 297.5,358.5 Z"/></g>
<g><path style="opacity:1" fill="#291310" d="M 319.5,363.5 C 321.885,365.884 323.885,368.55 325.5,371.5C 325.5,372.5 325.5,373.5 325.5,374.5C 325.565,374.938 325.399,375.272 325,375.5C 322.597,373.695 320.93,371.362 320,368.5C 319.667,369.833 319.333,371.167 319,372.5C 317.887,371.695 316.721,371.028 315.5,370.5C 315.5,369.833 315.5,369.167 315.5,368.5C 317.531,367.461 318.864,365.795 319.5,363.5 Z"/></g>
<g><path style="opacity:1" fill="#f3887f" d="M 434.5,356.5 C 434.833,356.5 435.167,356.5 435.5,356.5C 436.167,358.5 436.833,360.5 437.5,362.5C 428.744,369.207 419.411,374.874 409.5,379.5C 408.833,378.167 408.167,376.833 407.5,375.5C 415.236,370.298 423.57,366.132 432.5,363C 434.229,361.211 434.896,359.044 434.5,356.5 Z"/></g>
<g><path style="opacity:1" fill="#744749" d="M 325.5,374.5 C 327.5,377.833 329.5,381.167 331.5,384.5C 331.5,385.167 331.5,385.833 331.5,386.5C 329.95,387.72 328.284,387.72 326.5,386.5C 323.714,383.636 321.381,380.302 319.5,376.5C 318.675,375.614 317.675,375.281 316.5,375.5C 316.371,373.784 316.038,372.117 315.5,370.5C 316.721,371.028 317.887,371.695 319,372.5C 319.333,371.167 319.667,369.833 320,368.5C 320.93,371.362 322.597,373.695 325,375.5C 325.399,375.272 325.565,374.938 325.5,374.5 Z"/></g>
<g><path style="opacity:0.943" fill="#f4aba3" d="M 437.5,362.5 C 438.774,363.189 438.774,364.023 437.5,365C 438.416,365.278 439.082,365.778 439.5,366.5C 430.478,371.869 421.478,377.202 412.5,382.5C 410.856,382.19 409.856,381.19 409.5,379.5C 419.411,374.874 428.744,369.207 437.5,362.5 Z"/></g>
<g><path style="opacity:1" fill="#d36059" d="M 321.5,359.5 C 321.5,358.833 321.833,358.5 322.5,358.5C 325.797,361.652 328.63,365.319 331,369.5C 332.873,371.709 335.04,373.542 337.5,375C 344.239,375.56 350.572,374.393 356.5,371.5C 357.872,372.512 359.205,373.512 360.5,374.5C 355.283,376.293 349.95,377.793 344.5,379C 339.608,381.842 339.608,384.842 344.5,388C 349.012,387.873 353.345,388.04 357.5,388.5C 355.331,390.34 353.998,392.674 353.5,395.5C 350.831,393.913 347.831,393.079 344.5,393C 341.473,389.973 338.473,386.973 335.5,384C 333.934,383.235 332.601,383.402 331.5,384.5C 329.5,381.167 327.5,377.833 325.5,374.5C 325.5,373.5 325.5,372.5 325.5,371.5C 326.091,370.849 326.757,370.182 327.5,369.5C 325.977,365.771 323.977,362.438 321.5,359.5 Z"/></g>
<g><path style="opacity:1" fill="#e16553" d="M 393.5,361.5 C 396.674,366.516 399.341,371.849 401.5,377.5C 401.67,378.822 401.337,379.989 400.5,381C 393.302,381.92 386.302,383.587 379.5,386C 384.684,386.174 389.684,386.674 394.5,387.5C 386.157,387.458 377.824,387.124 369.5,386.5C 365.278,386.282 361.278,386.949 357.5,388.5C 353.345,388.04 349.012,387.873 344.5,388C 339.608,384.842 339.608,381.842 344.5,379C 349.95,377.793 355.283,376.293 360.5,374.5C 366.18,376.839 368.846,374.839 368.5,368.5C 370.738,369.537 373.071,369.703 375.5,369C 380.833,367.333 386.167,365.667 391.5,364C 392.756,363.583 393.423,362.75 393.5,361.5 Z"/></g>
<g><path style="opacity:1" fill="#e3c3c3" d="M 316.5,375.5 C 317.675,375.281 318.675,375.614 319.5,376.5C 321.381,380.302 323.714,383.636 326.5,386.5C 325.883,386.389 325.383,386.056 325,385.5C 322.333,388.167 319.667,390.833 317,393.5C 316.405,394.899 316.572,396.232 317.5,397.5C 316.586,401.202 314.586,402.202 311.5,400.5C 312.822,400.67 313.989,400.337 315,399.5C 315.703,396.518 315.203,393.851 313.5,391.5C 312.674,388.515 311.341,385.849 309.5,383.5C 308.89,382.609 308.557,381.609 308.5,380.5C 311.704,379.617 314.371,377.95 316.5,375.5 Z"/></g>
<g><path style="opacity:1" fill="#d4c5c8" d="M 211.5,383.5 C 212.258,388.238 210.925,392.238 207.5,395.5C 209.867,397.395 212.534,397.895 215.5,397C 218.993,394.668 222.327,392.168 225.5,389.5C 226.414,392.728 226.747,396.061 226.5,399.5C 222.386,409.051 215.22,412.384 205,409.5C 202.277,407.813 199.443,406.313 196.5,405C 193.683,401.853 190.516,399.02 187,396.5C 186.529,394.754 185.862,393.087 185,391.5C 182.378,389.589 180.211,387.255 178.5,384.5C 179.981,383.52 181.315,382.353 182.5,381C 192.194,382.288 201.861,383.121 211.5,383.5 Z"/></g>
<g><path style="opacity:1" fill="#c3b7ea" d="M 105.5,359.5 C 107.85,362.111 109.85,365.111 111.5,368.5C 112.971,367.619 113.804,366.286 114,364.5C 114.333,364.833 114.667,365.167 115,365.5C 116.068,369.729 118.068,373.396 121,376.5C 120.947,379.613 122.114,382.113 124.5,384C 123.226,384.977 123.226,385.811 124.5,386.5C 124.5,386.833 124.5,387.167 124.5,387.5C 120.461,388.912 119.127,391.578 120.5,395.5C 119.175,400.901 119.175,406.401 120.5,412C 123.827,412.805 126.994,412.638 130,411.5C 130.597,408.319 130.097,405.319 128.5,402.5C 132.079,405.59 133.413,409.59 132.5,414.5C 127.244,415.622 123.244,418.456 120.5,423C 120.645,423.772 120.978,424.439 121.5,425C 120.369,427.374 118.702,429.208 116.5,430.5C 114.107,427.149 113.107,423.316 113.5,419C 114.272,412.77 115.105,406.604 116,400.5C 102.617,389.3 99.1168,375.633 105.5,359.5 Z"/></g>
<g><path style="opacity:1" fill="#ed7f7c" d="M 401.5,377.5 C 403.099,378.799 403.599,380.465 403,382.5C 400.243,383.603 398.076,385.269 396.5,387.5C 395.833,387.5 395.167,387.5 394.5,387.5C 389.684,386.674 384.684,386.174 379.5,386C 386.302,383.587 393.302,381.92 400.5,381C 401.337,379.989 401.67,378.822 401.5,377.5 Z"/></g>
<g><path style="opacity:1" fill="#e1c8ca" d="M 170.5,407.5 C 168.549,407.227 167.049,407.893 166,409.5C 158.185,408.876 150.352,408.043 142.5,407C 144.5,406.667 146.5,406.333 148.5,406C 147.833,405.667 147.167,405.333 146.5,405C 147.574,404.261 148.241,403.261 148.5,402C 147.523,400.503 146.523,399.003 145.5,397.5C 145.667,396.833 145.833,396.167 146,395.5C 146.893,396.711 147.726,396.711 148.5,395.5C 147.873,394.583 147.539,393.583 147.5,392.5C 148.708,393.234 150.041,393.567 151.5,393.5C 151.67,392.178 151.337,391.011 150.5,390C 154.651,389.857 158.818,390.023 163,390.5C 167.609,390.696 171.942,389.696 176,387.5C 177.734,388.466 178.568,389.966 178.5,392C 178.371,396.459 177.038,400.459 174.5,404C 173.167,404.333 171.833,404.667 170.5,405C 171.598,405.77 171.598,406.603 170.5,407.5 Z"/></g>
<g><path style="opacity:1" fill="#e7cacb" d="M 225.5,389.5 C 222.327,392.168 218.993,394.668 215.5,397C 212.534,397.895 209.867,397.395 207.5,395.5C 210.925,392.238 212.258,388.238 211.5,383.5C 212.5,383.5 213.5,383.5 214.5,383.5C 215.833,383.5 217.167,383.5 218.5,383.5C 218.5,382.5 218.5,381.5 218.5,380.5C 220.167,380.5 221.833,380.5 223.5,380.5C 223.338,378.473 223.505,376.473 224,374.5C 225.973,373.36 227.807,372.027 229.5,370.5C 231.477,377.559 230.144,383.892 225.5,389.5 Z"/></g>
<g><path style="opacity:1" fill="#e26553" d="M 298.5,374.5 C 301.021,378.354 303.688,382.188 306.5,386C 308.154,386.196 309.154,385.363 309.5,383.5C 311.341,385.849 312.674,388.515 313.5,391.5C 313.5,393.167 313.5,394.833 313.5,396.5C 312.448,396.649 311.448,396.483 310.5,396C 308.587,393.933 306.92,391.766 305.5,389.5C 302.896,384.625 300.562,379.625 298.5,374.5 Z"/></g>
<g><path style="opacity:1" fill="#dd3b1f" d="M 394.5,387.5 C 395.167,387.5 395.833,387.5 396.5,387.5C 396.5,387.833 396.5,388.167 396.5,388.5C 394.214,388.595 392.214,389.262 390.5,390.5C 381.31,393.118 371.976,395.118 362.5,396.5C 360.139,396.674 357.806,397.007 355.5,397.5C 354.833,396.833 354.167,396.167 353.5,395.5C 353.998,392.674 355.331,390.34 357.5,388.5C 361.278,386.949 365.278,386.282 369.5,386.5C 377.824,387.124 386.157,387.458 394.5,387.5 Z"/></g>
<g><path style="opacity:0.682" fill="#e3bdbd" d="M 355.5,397.5 C 355.5,398.167 355.167,398.5 354.5,398.5C 350.486,398.666 346.486,398.499 342.5,398C 338.667,395.5 335.5,392.333 333,388.5C 331.274,389.576 329.441,389.743 327.5,389C 326.748,388.329 326.414,387.496 326.5,386.5C 328.284,387.72 329.95,387.72 331.5,386.5C 332.222,386.082 332.722,385.416 333,384.5C 335.448,388.615 338.281,392.448 341.5,396C 346.085,397.225 350.752,397.725 355.5,397.5 Z"/></g>
<g><path style="opacity:1" fill="#dc7d88" d="M 353.5,395.5 C 354.167,396.167 354.833,396.833 355.5,397.5C 350.752,397.725 346.085,397.225 341.5,396C 338.281,392.448 335.448,388.615 333,384.5C 332.722,385.416 332.222,386.082 331.5,386.5C 331.5,385.833 331.5,385.167 331.5,384.5C 332.601,383.402 333.934,383.235 335.5,384C 338.473,386.973 341.473,389.973 344.5,393C 347.831,393.079 350.831,393.913 353.5,395.5 Z"/></g>
<g><path style="opacity:1" fill="#e88c8e" d="M 305.5,389.5 C 306.92,391.766 308.587,393.933 310.5,396C 311.448,396.483 312.448,396.649 313.5,396.5C 313.5,394.833 313.5,393.167 313.5,391.5C 315.203,393.851 315.703,396.518 315,399.5C 313.989,400.337 312.822,400.67 311.5,400.5C 310.624,400.631 309.957,400.298 309.5,399.5C 308.141,396.486 306.808,393.486 305.5,390.5C 305.5,390.167 305.5,389.833 305.5,389.5 Z"/></g>
<g><path style="opacity:1" fill="#211407" d="M 390.5,390.5 C 391.675,390.281 392.675,390.614 393.5,391.5C 391.26,397.39 388.927,403.223 386.5,409C 383.67,409.869 381.003,411.036 378.5,412.5C 377.833,412.167 377.167,411.833 376.5,411.5C 372.77,413.576 368.77,414.743 364.5,415C 362.939,415.318 361.772,416.151 361,417.5C 359.571,417.53 358.071,417.197 356.5,416.5C 355.725,411.516 355.058,406.516 354.5,401.5C 357.203,399.819 359.869,398.153 362.5,396.5C 371.976,395.118 381.31,393.118 390.5,390.5 Z"/></g>
<g><path style="opacity:1" fill="#4e100c" d="M 362.5,396.5 C 359.869,398.153 357.203,399.819 354.5,401.5C 354.5,400.833 354.5,400.167 354.5,399.5C 354.5,399.167 354.5,398.833 354.5,398.5C 355.167,398.5 355.5,398.167 355.5,397.5C 357.806,397.007 360.139,396.674 362.5,396.5 Z"/></g>
<g><path style="opacity:1" fill="#ecd5d3" d="M 298.5,380.5 C 299.674,381.514 300.34,382.847 300.5,384.5C 299.736,386.74 298.902,389.073 298,391.5C 293.554,394.974 288.721,397.807 283.5,400C 282.773,401.399 282.273,402.899 282,404.5C 279.913,405.794 277.746,406.961 275.5,408C 274.663,409.011 274.33,410.178 274.5,411.5C 272.167,411.5 269.833,411.5 267.5,411.5C 267.5,409.5 267.5,407.5 267.5,405.5C 267.5,403.833 267.5,402.167 267.5,400.5C 268.5,400.5 269.5,400.5 270.5,400.5C 270.5,398.5 270.5,396.5 270.5,394.5C 272.912,394.756 274.579,393.756 275.5,391.5C 278.157,392.466 280.824,392.966 283.5,393C 286.927,391.204 290.094,389.037 293,386.5C 293.278,382.874 295.112,380.874 298.5,380.5 Z"/></g>
<g><path style="opacity:1" fill="#b2a0ea" d="M 120.5,395.5 C 123.167,397.833 125.833,400.167 128.5,402.5C 130.097,405.319 130.597,408.319 130,411.5C 126.994,412.638 123.827,412.805 120.5,412C 119.175,406.401 119.175,400.901 120.5,395.5 Z"/></g>
<g><path style="opacity:0.993" fill="#eccfcd" d="M 292.5,410.5 C 293.708,411.234 295.041,411.567 296.5,411.5C 296.897,415.321 295.564,418.321 292.5,420.5C 288.748,416.959 288.748,413.626 292.5,410.5 Z"/></g>
<g><path style="opacity:1" fill="#251b08" d="M 396.5,388.5 C 390.167,406.5 383.833,424.5 377.5,442.5C 376.291,448.183 372.791,451.85 367,453.5C 365.594,452.586 364.094,451.92 362.5,451.5C 362.5,451.167 362.5,450.833 362.5,450.5C 362.664,445.126 361.664,440.126 359.5,435.5C 359.299,429.033 358.299,422.7 356.5,416.5C 358.071,417.197 359.571,417.53 361,417.5C 361.772,416.151 362.939,415.318 364.5,415C 368.77,414.743 372.77,413.576 376.5,411.5C 377.167,411.833 377.833,412.167 378.5,412.5C 381.003,411.036 383.67,409.869 386.5,409C 388.927,403.223 391.26,397.39 393.5,391.5C 392.675,390.614 391.675,390.281 390.5,390.5C 392.214,389.262 394.214,388.595 396.5,388.5 Z"/></g>
<g><path style="opacity:1" fill="#dfd2d3" d="M 187.5,374.5 C 190.468,376.232 193.635,377.565 197,378.5C 200.391,377.55 203.558,376.217 206.5,374.5C 209.47,374.746 210.803,376.412 210.5,379.5C 213.142,379.488 214.475,380.821 214.5,383.5C 213.5,383.5 212.5,383.5 211.5,383.5C 201.861,383.121 192.194,382.288 182.5,381C 181.315,382.353 179.981,383.52 178.5,384.5C 180.211,387.255 182.378,389.589 185,391.5C 185.862,393.087 186.529,394.754 187,396.5C 190.516,399.02 193.683,401.853 196.5,405C 199.443,406.313 202.277,407.813 205,409.5C 215.22,412.384 222.386,409.051 226.5,399.5C 226.643,401.262 226.309,402.929 225.5,404.5C 226.167,404.833 226.833,405.167 227.5,405.5C 226.5,408.167 225.5,410.833 224.5,413.5C 227.527,414.857 230.36,414.524 233,412.5C 234.954,414.225 237.121,415.558 239.5,416.5C 240.647,416.182 241.481,415.516 242,414.5C 243,415.5 244,416.5 245,417.5C 245.075,412.375 246.242,407.541 248.5,403C 254.861,403.577 261.195,404.411 267.5,405.5C 267.5,407.5 267.5,409.5 267.5,411.5C 266.244,411.904 265.077,412.571 264,413.5C 259.809,412.468 255.809,411.801 252,411.5C 252.622,417.555 253.788,423.555 255.5,429.5C 251.535,429.696 248.035,431.03 245,433.5C 244.519,431.522 243.353,430.189 241.5,429.5C 237.967,430.734 234.467,432.067 231,433.5C 229.357,432.685 227.857,431.685 226.5,430.5C 223.979,424.783 220.479,419.783 216,415.5C 212.689,417.903 209.189,419.903 205.5,421.5C 202.555,421.011 200.222,419.511 198.5,417C 200.221,416.261 201.887,415.427 203.5,414.5C 199.674,411.181 195.674,408.015 191.5,405C 186.783,402.58 182.449,403.08 178.5,406.5C 177.833,406.167 177.167,405.833 176.5,405.5C 175.479,407.188 174.145,408.521 172.5,409.5C 172.167,408.5 171.5,407.833 170.5,407.5C 171.598,406.603 171.598,405.77 170.5,405C 171.833,404.667 173.167,404.333 174.5,404C 177.038,400.459 178.371,396.459 178.5,392C 178.568,389.966 177.734,388.466 176,387.5C 171.942,389.696 167.609,390.696 163,390.5C 158.818,390.023 154.651,389.857 150.5,390C 151.337,391.011 151.67,392.178 151.5,393.5C 150.041,393.567 148.708,393.234 147.5,392.5C 147.322,391.305 146.989,390.138 146.5,389C 147.833,388.333 149.167,387.667 150.5,387C 149.852,385.56 149.519,384.06 149.5,382.5C 151.331,383.052 152.997,383.052 154.5,382.5C 153.885,379.961 153.218,377.461 152.5,375C 152.833,374.833 153.167,374.667 153.5,374.5C 159.071,374.865 164.571,374.865 170,374.5C 175.942,378.481 181.775,378.481 187.5,374.5 Z"/></g>
<g><path style="opacity:1" fill="#dedadb" d="M 205.5,421.5 C 203.058,422.899 200.724,424.566 198.5,426.5C 197.978,427.607 197.645,428.774 197.5,430C 198.982,433.921 200.316,437.921 201.5,442C 198.144,442.215 194.811,442.215 191.5,442C 193.407,445.631 194.241,449.465 194,453.5C 191.993,452.331 189.827,451.665 187.5,451.5C 186.227,448.022 184.227,444.855 181.5,442C 174.001,440.513 168.168,436.68 164,430.5C 160.871,429.095 158.204,429.762 156,432.5C 155.764,430.236 155.264,428.069 154.5,426C 156.695,422.641 159.362,419.807 162.5,417.5C 165.303,415.468 168.303,413.635 171.5,412C 172.252,411.329 172.586,410.496 172.5,409.5C 174.145,408.521 175.479,407.188 176.5,405.5C 177.167,405.833 177.833,406.167 178.5,406.5C 182.449,403.08 186.783,402.58 191.5,405C 195.674,408.015 199.674,411.181 203.5,414.5C 201.887,415.427 200.221,416.261 198.5,417C 200.222,419.511 202.555,421.011 205.5,421.5 Z"/></g>
<g><path style="opacity:1" fill="#ebd7d6" d="M 226.5,430.5 C 226.338,432.527 226.505,434.527 227,436.5C 228.989,438.812 230.156,441.478 230.5,444.5C 228.344,457.156 222.344,467.489 212.5,475.5C 212.586,474.504 212.252,473.671 211.5,473C 213.235,470.363 214.568,467.53 215.5,464.5C 209.482,463.334 203.482,463.501 197.5,465C 196.903,466.889 196.569,468.722 196.5,470.5C 194.805,469.826 193.138,469.159 191.5,468.5C 190.637,462.716 189.304,457.049 187.5,451.5C 189.827,451.665 191.993,452.331 194,453.5C 194.241,449.465 193.407,445.631 191.5,442C 194.811,442.215 198.144,442.215 201.5,442C 200.316,437.921 198.982,433.921 197.5,430C 197.645,428.774 197.978,427.607 198.5,426.5C 200.724,424.566 203.058,422.899 205.5,421.5C 209.189,419.903 212.689,417.903 216,415.5C 220.479,419.783 223.979,424.783 226.5,430.5 Z"/></g>
<g><path style="opacity:0.502" fill="#805855" d="M 354.5,399.5 C 354.5,400.167 354.5,400.833 354.5,401.5C 355.058,406.516 355.725,411.516 356.5,416.5C 358.299,422.7 359.299,429.033 359.5,435.5C 357.544,427.327 355.711,418.994 354,410.5C 353.19,406.642 353.357,402.976 354.5,399.5 Z"/></g>
<g><path style="opacity:0.757" fill="#cb8567" d="M 396.5,387.5 C 397.338,387.842 397.672,388.508 397.5,389.5C 391.602,408.865 384.935,427.865 377.5,446.5C 377.5,445.167 377.5,443.833 377.5,442.5C 383.833,424.5 390.167,406.5 396.5,388.5C 396.5,388.167 396.5,387.833 396.5,387.5 Z"/></g>
<g><path style="opacity:0.999" fill="#c2b6da" d="M 132.5,414.5 C 134.429,414.231 136.095,414.731 137.5,416C 134.833,417.667 132.167,419.333 129.5,421C 127.833,424 125.5,426.333 122.5,428C 122.5,429.333 122.5,430.667 122.5,432C 121.29,433.039 120.29,434.206 119.5,435.5C 118.11,434.101 117.11,432.434 116.5,430.5C 118.702,429.208 120.369,427.374 121.5,425C 120.978,424.439 120.645,423.772 120.5,423C 123.244,418.456 127.244,415.622 132.5,414.5 Z"/></g>
<g><path style="opacity:1" fill="#c9c0c9" d="M 128.5,379.5 C 131.5,380.833 134.5,380.833 137.5,379.5C 139.386,380.361 141.22,381.361 143,382.5C 145.081,381.667 147.248,381.667 149.5,382.5C 149.519,384.06 149.852,385.56 150.5,387C 149.167,387.667 147.833,388.333 146.5,389C 146.989,390.138 147.322,391.305 147.5,392.5C 147.539,393.583 147.873,394.583 148.5,395.5C 147.726,396.711 146.893,396.711 146,395.5C 145.833,396.167 145.667,396.833 145.5,397.5C 146.523,399.003 147.523,400.503 148.5,402C 148.241,403.261 147.574,404.261 146.5,405C 147.167,405.333 147.833,405.667 148.5,406C 146.5,406.333 144.5,406.667 142.5,407C 150.352,408.043 158.185,408.876 166,409.5C 167.049,407.893 168.549,407.227 170.5,407.5C 171.5,407.833 172.167,408.5 172.5,409.5C 172.586,410.496 172.252,411.329 171.5,412C 168.303,413.635 165.303,415.468 162.5,417.5C 159.884,418.48 157.551,419.98 155.5,422C 150.808,422.023 146.975,423.856 144,427.5C 143.333,429.5 143.333,431.5 144,433.5C 147.056,435.961 149.889,438.627 152.5,441.5C 151.801,443.556 150.801,445.556 149.5,447.5C 145.446,444.806 141.112,442.639 136.5,441C 132.692,439.026 129.692,436.192 127.5,432.5C 128.32,430.889 129.654,430.222 131.5,430.5C 131.343,429.127 131.51,427.793 132,426.5C 134.365,425.711 136.532,424.544 138.5,423C 136.088,420.965 136.755,419.965 140.5,420C 139.366,418.984 139.699,418.317 141.5,418C 140.833,417.667 140.167,417.333 139.5,417C 142.509,415.496 145.509,413.996 148.5,412.5C 144.461,410.525 140.295,408.858 136,407.5C 135.833,407.167 135.667,406.833 135.5,406.5C 137.5,405.167 139.5,403.833 141.5,402.5C 141.333,402.167 141.167,401.833 141,401.5C 136.5,398.333 132,395.167 127.5,392C 126.219,390.591 125.219,389.091 124.5,387.5C 124.5,387.167 124.5,386.833 124.5,386.5C 125.239,386.631 125.906,386.464 126.5,386C 125.185,384.605 125.519,383.605 127.5,383C 124.882,381.256 125.215,380.089 128.5,379.5 Z"/></g>
<g><path style="opacity:1" fill="#e7c8c7" d="M 300.5,384.5 C 301.285,386.374 301.952,388.374 302.5,390.5C 302.214,394.111 300.548,396.944 297.5,399C 292.832,399.73 288.665,401.564 285,404.5C 283.58,408.345 281.413,411.678 278.5,414.5C 280.549,425.74 276.049,432.74 265,435.5C 252.421,434.686 240.921,437.686 230.5,444.5C 230.156,441.478 228.989,438.812 227,436.5C 226.505,434.527 226.338,432.527 226.5,430.5C 227.857,431.685 229.357,432.685 231,433.5C 234.467,432.067 237.967,430.734 241.5,429.5C 243.353,430.189 244.519,431.522 245,433.5C 248.035,431.03 251.535,429.696 255.5,429.5C 253.788,423.555 252.622,417.555 252,411.5C 255.809,411.801 259.809,412.468 264,413.5C 265.077,412.571 266.244,411.904 267.5,411.5C 269.833,411.5 272.167,411.5 274.5,411.5C 274.33,410.178 274.663,409.011 275.5,408C 277.746,406.961 279.913,405.794 282,404.5C 282.273,402.899 282.773,401.399 283.5,400C 288.721,397.807 293.554,394.974 298,391.5C 298.902,389.073 299.736,386.74 300.5,384.5 Z"/></g>
<g><path style="opacity:1" fill="#cabacc" d="M 124.5,387.5 C 125.219,389.091 126.219,390.591 127.5,392C 132,395.167 136.5,398.333 141,401.5C 141.167,401.833 141.333,402.167 141.5,402.5C 139.5,403.833 137.5,405.167 135.5,406.5C 135.667,406.833 135.833,407.167 136,407.5C 140.295,408.858 144.461,410.525 148.5,412.5C 145.509,413.996 142.509,415.496 139.5,417C 140.167,417.333 140.833,417.667 141.5,418C 139.699,418.317 139.366,418.984 140.5,420C 136.755,419.965 136.088,420.965 138.5,423C 136.532,424.544 134.365,425.711 132,426.5C 131.51,427.793 131.343,429.127 131.5,430.5C 129.654,430.222 128.32,430.889 127.5,432.5C 129.692,436.192 132.692,439.026 136.5,441C 141.112,442.639 145.446,444.806 149.5,447.5C 150.801,445.556 151.801,443.556 152.5,441.5C 153.117,441.611 153.617,441.944 154,442.5C 154.333,440.5 154.667,438.5 155,436.5C 157.954,441.39 161.621,445.723 166,449.5C 166.667,450.167 166.667,450.833 166,451.5C 164.745,452.211 163.579,453.044 162.5,454C 166.127,456.112 166.127,457.779 162.5,459C 169.231,464.517 176.564,469.017 184.5,472.5C 186.452,473.785 188.118,475.451 189.5,477.5C 185.65,479.959 186.316,481.126 191.5,481C 187.91,481.311 184.577,482.144 181.5,483.5C 169.603,481.753 160.103,476.087 153,466.5C 150.9,461.523 148.066,457.023 144.5,453C 138.998,449.415 133.331,446.081 127.5,443C 124.334,441 121.668,438.5 119.5,435.5C 120.29,434.206 121.29,433.039 122.5,432C 122.5,430.667 122.5,429.333 122.5,428C 125.5,426.333 127.833,424 129.5,421C 132.167,419.333 134.833,417.667 137.5,416C 136.095,414.731 134.429,414.231 132.5,414.5C 133.413,409.59 132.079,405.59 128.5,402.5C 125.833,400.167 123.167,397.833 120.5,395.5C 119.127,391.578 120.461,388.912 124.5,387.5 Z"/></g>
<g><path style="opacity:0.998" fill="#e7d1d1" d="M 267.5,441.5 C 272.229,442.926 272.562,444.926 268.5,447.5C 264.854,446.2 264.52,444.2 267.5,441.5 Z"/></g>
<g><path style="opacity:1" fill="#d4cfd6" d="M 162.5,417.5 C 159.362,419.807 156.695,422.641 154.5,426C 155.264,428.069 155.764,430.236 156,432.5C 158.204,429.762 160.871,429.095 164,430.5C 168.168,436.68 174.001,440.513 181.5,442C 184.227,444.855 186.227,448.022 187.5,451.5C 189.304,457.049 190.637,462.716 191.5,468.5C 189.703,467.27 187.703,466.604 185.5,466.5C 185.675,468.621 185.341,470.621 184.5,472.5C 176.564,469.017 169.231,464.517 162.5,459C 166.127,457.779 166.127,456.112 162.5,454C 163.579,453.044 164.745,452.211 166,451.5C 166.667,450.833 166.667,450.167 166,449.5C 161.621,445.723 157.954,441.39 155,436.5C 154.667,438.5 154.333,440.5 154,442.5C 153.617,441.944 153.117,441.611 152.5,441.5C 149.889,438.627 147.056,435.961 144,433.5C 143.333,431.5 143.333,429.5 144,427.5C 146.975,423.856 150.808,422.023 155.5,422C 157.551,419.98 159.884,418.48 162.5,417.5 Z"/></g>
<g><path style="opacity:0.735" fill="#815c5c" d="M 359.5,435.5 C 361.664,440.126 362.664,445.126 362.5,450.5C 360.882,445.744 359.882,440.744 359.5,435.5 Z"/></g>
<g><path style="opacity:0.988" fill="#8c605c" d="M 377.5,442.5 C 377.5,443.833 377.5,445.167 377.5,446.5C 375.485,452.843 371.152,455.676 364.5,455C 363.177,454.184 362.511,453.017 362.5,451.5C 364.094,451.92 365.594,452.586 367,453.5C 372.791,451.85 376.291,448.183 377.5,442.5 Z"/></g>
<g><path style="opacity:0.886" fill="#eadbdb" d="M 244.5,460.5 C 247.167,460.5 249.833,460.5 252.5,460.5C 252.143,466.316 249.31,468.316 244,466.5C 243.322,464.402 243.489,462.402 244.5,460.5 Z"/></g>
<g><path style="opacity:1" fill="#e4c8cd" d="M 212.5,475.5 C 203.453,482.618 193.12,485.285 181.5,483.5C 184.577,482.144 187.91,481.311 191.5,481C 186.316,481.126 185.65,479.959 189.5,477.5C 188.118,475.451 186.452,473.785 184.5,472.5C 185.341,470.621 185.675,468.621 185.5,466.5C 187.703,466.604 189.703,467.27 191.5,468.5C 193.138,469.159 194.805,469.826 196.5,470.5C 196.569,468.722 196.903,466.889 197.5,465C 203.482,463.501 209.482,463.334 215.5,464.5C 214.568,467.53 213.235,470.363 211.5,473C 212.252,473.671 212.586,474.504 212.5,475.5 Z"/></g>
<g><path style="opacity:0.998" fill="#e4dbe0" d="M 459.5,476.5 C 461.693,483.489 460.36,489.656 455.5,495C 453.212,495.822 450.878,496.489 448.5,497C 447.658,499.068 447.658,501.235 448.5,503.5C 448.693,505.688 447.859,507.355 446,508.5C 445.501,512.152 445.335,515.818 445.5,519.5C 440.699,520.386 435.699,520.219 430.5,519C 428.301,517.303 425.968,515.803 423.5,514.5C 422.893,514.624 422.56,514.957 422.5,515.5C 420.574,504.19 424.908,496.024 435.5,491C 439.508,487.289 443.508,483.622 447.5,480C 451.187,477.715 455.187,476.548 459.5,476.5 Z"/></g>
<g><path style="opacity:1" fill="#f4ded9" d="M 459.5,476.5 C 463.048,477.516 466.381,479.016 469.5,481C 475.14,487.485 481.473,492.985 488.5,497.5C 487.624,497.369 486.957,497.702 486.5,498.5C 487.6,502.442 487.767,506.442 487,510.5C 485.056,512.221 482.89,513.554 480.5,514.5C 478.801,514.62 477.135,514.954 475.5,515.5C 469.499,514.166 463.499,512.833 457.5,511.5C 451.579,511.099 448.912,513.766 449.5,519.5C 448.167,519.5 446.833,519.5 445.5,519.5C 445.335,515.818 445.501,512.152 446,508.5C 447.859,507.355 448.693,505.688 448.5,503.5C 447.658,501.235 447.658,499.068 448.5,497C 450.878,496.489 453.212,495.822 455.5,495C 460.36,489.656 461.693,483.489 459.5,476.5 Z"/></g>
<g><path style="opacity:1" fill="#ecd2cc" d="M 480.5,514.5 C 480.5,517.833 480.5,521.167 480.5,524.5C 478.234,524.141 476.401,524.808 475,526.5C 466.382,521.699 457.216,520.532 447.5,523C 443.898,526.327 439.564,527.994 434.5,528C 434.998,529.158 435.831,529.991 437,530.5C 439.346,530.99 441.513,531.657 443.5,532.5C 431.972,532.297 424.972,526.63 422.5,515.5C 422.56,514.957 422.893,514.624 423.5,514.5C 425.968,515.803 428.301,517.303 430.5,519C 435.699,520.219 440.699,520.386 445.5,519.5C 446.833,519.5 448.167,519.5 449.5,519.5C 448.912,513.766 451.579,511.099 457.5,511.5C 463.499,512.833 469.499,514.166 475.5,515.5C 477.135,514.954 478.801,514.62 480.5,514.5 Z"/></g>
<g><path style="opacity:1" fill="#f2d2c6" d="M 488.5,497.5 C 497.049,511.287 494.715,522.787 481.5,532C 478.185,532.941 474.852,533.774 471.5,534.5C 462.325,531.555 452.992,530.888 443.5,532.5C 441.513,531.657 439.346,530.99 437,530.5C 435.831,529.991 434.998,529.158 434.5,528C 439.564,527.994 443.898,526.327 447.5,523C 457.216,520.532 466.382,521.699 475,526.5C 476.401,524.808 478.234,524.141 480.5,524.5C 480.5,521.167 480.5,517.833 480.5,514.5C 482.89,513.554 485.056,512.221 487,510.5C 487.767,506.442 487.6,502.442 486.5,498.5C 486.957,497.702 487.624,497.369 488.5,497.5 Z"/></g>
</svg>
