<?xml version="1.0" encoding="UTF-8" standalone="no"?><!DOCTYPE svg PUBLIC "-//W3C//DTD SVG 1.1//EN" "http://www.w3.org/Graphics/SVG/1.1/DTD/svg11.dtd"><svg width="100%" height="100%" viewBox="0 0 768 495" version="1.1" xmlns="http://www.w3.org/2000/svg" xmlns:xlink="http://www.w3.org/1999/xlink" xml:space="preserve" xmlns:serif="http://www.serif.com/" style="fill-rule:evenodd;clip-rule:evenodd;stroke-linejoin:round;stroke-miterlimit:2;"><path d="M207.563,158.109l86.785,-126.375l145.517,0l-158.746,219.012l173.297,243.395l-152.131,-0l-95,-142.879l0.278,-193.153Z" style="fill:#ff1b65;fill-rule:nonzero;"/><path d="M241.619,126.374l86.784,-126.374l145.517,0l-158.745,219.012l173.297,243.395l-152.131,-0l-95.001,-142.879l0.279,-193.154Z" style="fill:#143a69;fill-rule:nonzero;"/><path d="M432.143,461.729l-95.481,-0l-95,-142.879l0.278,-193.153l64.992,-94.641l133.254,0l-158.746,219.012l150.703,211.661Z" style="fill:#050505;fill-opacity:0.46;"/><path d="M241.453,320.23l-0.248,-0.372l-96.129,143.25l-145.076,0l168.888,-238.169l-161.833,-224.237l151.25,-0l82.9,127.14l0.526,-0.766l-0.278,193.154Z" style="fill:none;fill-rule:nonzero;"/><clipPath id="_clip1"><path d="M241.453,320.23l-0.248,-0.372l-96.129,143.25l-145.076,0l168.888,-238.169l-161.833,-224.237l151.25,-0l82.9,127.14l0.526,-0.766l-0.278,193.154Z" clip-rule="nonzero"/></clipPath><g clip-path="url(#_clip1)"><g><path d="M-175.389,68.593l398.825,369.314l-10.2,3.904l-398.824,-369.314l10.199,-3.904Z" style="fill:#143a69;"/><path d="M-6.499,6.56l398.825,369.314l-10.2,3.904l-398.824,-369.314l10.199,-3.904Z" style="fill:#143a69;"/><path d="M-342.744,128.92l398.824,369.314l-10.199,3.904l-398.825,-369.314l10.2,-3.904Z" style="fill:#143a69;"/><path d="M-91.399,38.31l398.825,369.314l-10.2,3.904l-398.824,-369.315l10.199,-3.903Z" style="fill:#143a69;"/><path d="M77.491,-23.723l398.825,369.314l-10.2,3.904l-398.824,-369.314l10.199,-3.904Z" style="fill:#143a69;"/><path d="M-258.754,98.637l398.825,369.314l-10.2,3.904l-398.825,-369.315l10.2,-3.903Z" style="fill:#143a69;"/><path d="M-132.59,53.493l398.824,369.314l-10.199,3.904l-398.825,-369.315l10.2,-3.903Z" style="fill:#143a69;"/><path d="M36.3,-8.54l398.824,369.314l-10.199,3.904l-398.825,-369.314l10.2,-3.904Z" style="fill:#143a69;"/><path d="M-299.946,113.82l398.825,369.314l-10.2,3.904l-398.824,-369.314l10.199,-3.904Z" style="fill:#143a69;"/><path d="M-48.6,23.21l398.825,369.314l-10.2,3.903l-398.825,-369.314l10.2,-3.903Z" style="fill:#143a69;"/><path d="M-384.845,145.569l398.824,369.314l-10.199,3.904l-398.825,-369.314l10.2,-3.904Z" style="fill:#143a69;"/><path d="M120.29,-38.823l398.824,369.314l-10.199,3.904l-398.825,-369.314l10.2,-3.904Z" style="fill:#143a69;"/><path d="M-215.955,83.537l398.824,369.314l-10.199,3.904l-398.825,-369.315l10.2,-3.903Z" style="fill:#143a69;"/><path d="M-154.453,60.58l398.825,369.314l-10.2,3.904l-398.824,-369.315l10.199,-3.903Z" style="fill:#143a69;"/><path d="M14.437,-1.453l398.825,369.314l-10.2,3.904l-398.825,-369.314l10.2,-3.904Z" style="fill:#143a69;"/><path d="M-321.808,120.907l398.824,369.314l-10.199,3.904l-398.825,-369.315l10.2,-3.903Z" style="fill:#143a69;"/><path d="M-70.463,30.296l398.825,369.315l-10.2,3.903l-398.824,-369.314l10.199,-3.904Z" style="fill:#143a69;"/><path d="M98.427,-31.736l398.825,369.314l-10.2,3.904l-398.824,-369.314l10.199,-3.904Z" style="fill:#143a69;"/><path d="M-237.818,90.624l398.824,369.314l-10.199,3.903l-398.825,-369.314l10.2,-3.903Z" style="fill:#143a69;"/><path d="M-111.654,45.48l398.824,369.314l-10.199,3.903l-398.825,-369.314l10.2,-3.903Z" style="fill:#143a69;"/><path d="M57.236,-16.553l398.824,369.314l-10.199,3.904l-398.825,-369.314l10.2,-3.904Z" style="fill:#143a69;"/><path d="M-279.01,105.807l398.825,369.314l-10.2,3.903l-398.824,-369.314l10.199,-3.903Z" style="fill:#143a69;"/><path d="M-27.664,15.196l398.825,369.315l-10.2,3.903l-398.825,-369.314l10.2,-3.904Z" style="fill:#143a69;"/><path d="M-363.909,137.556l398.824,369.314l-10.199,3.904l-398.825,-369.314l10.2,-3.904Z" style="fill:#143a69;"/><path d="M141.226,-46.836l398.824,369.314l-10.199,3.904l-398.825,-369.314l10.2,-3.904Z" style="fill:#143a69;"/><path d="M-195.02,75.523l398.825,369.315l-10.2,3.903l-398.824,-369.314l10.199,-3.904Z" style="fill:#143a69;"/></g></g><path d="M418.259,114.182l-74.704,105.065l-7.448,0.067l74.526,-105.132l7.626,-0Z" style="fill:#1bffff;"/><g><path d="M336.107,219.314l73.066,101.994l7.386,-0l-72.999,-102.166l-7.453,0.172Z" style="fill:#1bffff;"/></g><path d="M463.635,269.577l-57.103,0l-0,-102.092l54.665,-0l-0,10.334l-42.772,-0l0,34.678l39.521,-0l0,10.265l-39.521,-0l0,36.55l45.21,0l-0,10.265Z" style="fill:#050e0e;fill-rule:nonzero;"/><path d="M571.709,269.577l-14.996,0l-56.734,-82.395c-1.182,-1.711 -2.314,-3.838 -3.398,-6.381l-0.369,0c0.345,2.636 0.517,7.282 0.517,13.941l0,74.835l-11.967,0l-0,-102.092l15.808,-0l55.183,81.285c2.56,3.746 4.013,5.988 4.358,6.728l0.295,-0c-0.541,-3.375 -0.812,-8.415 -0.812,-15.12l-0,-72.893l12.115,-0l-0,102.092Z" style="fill:#050e0e;fill-rule:nonzero;"/><path d="M679.414,228.518c-0,28.529 -13.691,42.793 -41.073,42.793c-26.101,0 -39.152,-13.732 -39.152,-41.198l0,-62.628l11.893,-0l0,61.866c0,21.176 9.579,31.765 28.737,31.765c18.418,-0 27.628,-10.219 27.628,-30.656l-0,-62.975l11.967,-0l-0,61.033Z" style="fill:#050e0e;fill-rule:nonzero;"/><path d="M701.723,251.891c3.349,2.728 7.843,4.925 13.482,6.589c5.638,1.665 10.846,2.497 15.623,2.497c15.809,0 23.713,-5.387 23.713,-16.16c0,-3.098 -0.825,-5.826 -2.474,-8.184c-1.65,-2.358 -3.805,-4.37 -6.464,-6.034c-2.66,-1.665 -8.2,-4.531 -16.621,-8.6c-10.145,-4.901 -17.2,-9.421 -21.165,-13.559c-3.964,-4.139 -5.946,-9.329 -5.946,-15.571c-0,-8.323 3.607,-14.912 10.822,-19.766c7.215,-4.855 16.116,-7.283 26.705,-7.283c10.736,0 18.418,1.202 23.048,3.607l-0,12.969c-6.304,-4.115 -14.504,-6.172 -24.6,-6.172c-6.894,-0 -12.521,1.387 -16.879,4.161c-4.359,2.774 -6.538,6.612 -6.538,11.513c-0,4.439 1.539,8.057 4.617,10.854c3.078,2.798 9.468,6.416 19.17,10.855c11.327,5.317 18.96,10.334 22.9,15.05c3.94,4.716 5.91,9.825 5.91,15.328c-0,8.831 -3.399,15.593 -10.195,20.286c-6.796,4.694 -16.202,7.04 -28.219,7.04c-3.792,0 -8.557,-0.566 -14.294,-1.699c-5.737,-1.133 -9.936,-2.532 -12.595,-4.196l-0,-13.525Z" style="fill:#050e0e;fill-rule:nonzero;"/></svg>