<?xml version="1.0" encoding="UTF-8" standalone="no"?><!DOCTYPE svg PUBLIC "-//W3C//DTD SVG 1.1//EN" "http://www.w3.org/Graphics/SVG/1.1/DTD/svg11.dtd"><svg width="100%" height="100%" viewBox="0 0 843 543" version="1.1" xmlns="http://www.w3.org/2000/svg" xmlns:xlink="http://www.w3.org/1999/xlink" xml:space="preserve" xmlns:serif="http://www.serif.com/" style="fill-rule:evenodd;clip-rule:evenodd;stroke-linejoin:round;stroke-miterlimit:2;"><path d="M240.368,173.707l100.5,-138.842l168.516,0l-183.835,240.619l200.686,267.408l-176.175,-0l-110.014,-156.975l0.322,-212.21Z" style="fill:#cfcfcf;fill-rule:nonzero;"/><path d="M279.806,138.842l100.5,-138.842l168.516,0l-183.835,240.619l200.686,267.408l-176.175,-0l-110.014,-156.975l0.322,-212.21Z" style="fill:#555656;fill-rule:nonzero;"/><path d="M500.442,507.282l-110.571,0l-110.015,-156.974l0.322,-212.21l75.264,-103.978l154.314,0l-183.835,240.619l174.521,232.543Z" style="fill:#050505;fill-opacity:0.46;"/><path d="M279.614,351.823l-0.287,-0.408l-111.322,157.383l-168.005,0l195.58,-261.667l-187.41,-246.36l175.154,0l96.003,139.684l0.609,-0.842l-0.322,212.21Z" style="fill:none;fill-rule:nonzero;"/><clipPath id="_clip1"><path d="M279.614,351.823l-0.287,-0.408l-111.322,157.383l-168.005,0l195.58,-261.667l-187.41,-246.36l175.154,0l96.003,139.684l0.609,-0.842l-0.322,212.21Z" clip-rule="nonzero"/></clipPath><g clip-path="url(#_clip1)"><g><path d="M-203.108,75.36l461.857,405.75l-11.811,4.289l-461.858,-405.75l11.812,-4.289Z" style="fill:#c1c1c1;"/><path d="M-7.526,7.207l461.857,405.75l-11.811,4.289l-461.858,-405.75l11.812,-4.289Z" style="fill:#c1c1c1;"/><path d="M-396.914,141.639l461.858,405.75l-11.812,4.289l-461.857,-405.75l11.811,-4.289Z" style="fill:#c1c1c1;"/><path d="M-105.844,42.089l461.858,405.75l-11.812,4.289l-461.857,-405.75l11.811,-4.289Z" style="fill:#c1c1c1;"/><path d="M89.739,-26.063l461.857,405.75l-11.812,4.289l-461.857,-405.75l11.812,-4.289Z" style="fill:#c1c1c1;"/><path d="M-299.649,108.368l461.857,405.75l-11.811,4.289l-461.858,-405.75l11.812,-4.289Z" style="fill:#c1c1c1;"/><path d="M-153.546,58.77l461.858,405.75l-11.812,4.289l-461.857,-405.75l11.811,-4.289Z" style="fill:#c1c1c1;"/><path d="M42.037,-9.382l461.857,405.75l-11.811,4.289l-461.858,-405.75l11.812,-4.289Z" style="fill:#c1c1c1;"/><path d="M-347.351,125.049l461.857,405.75l-11.811,4.289l-461.858,-405.75l11.812,-4.289Z" style="fill:#c1c1c1;"/><path d="M-56.281,25.499l461.857,405.75l-11.811,4.289l-461.858,-405.75l11.812,-4.289Z" style="fill:#c1c1c1;"/><path d="M-445.669,159.931l461.858,405.75l-11.812,4.289l-461.857,-405.75l11.811,-4.289Z" style="fill:#143a69;"/><path d="M139.301,-42.653l461.858,405.75l-11.812,4.289l-461.857,-405.75l11.811,-4.289Z" style="fill:#c1c1c1;"/><path d="M-250.087,91.778l461.858,405.75l-11.812,4.289l-461.857,-405.75l11.811,-4.289Z" style="fill:#c1c1c1;"/><path d="M-178.864,66.556l461.858,405.75l-11.812,4.289l-461.857,-405.75l11.811,-4.289Z" style="fill:#c1c1c1;"/><path d="M16.719,-1.596l461.857,405.75l-11.811,4.289l-461.858,-405.75l11.812,-4.289Z" style="fill:#c1c1c1;"/><path d="M-372.669,132.835l461.857,405.75l-11.811,4.289l-461.858,-405.75l11.812,-4.289Z" style="fill:#c1c1c1;"/><path d="M-81.599,33.285l461.858,405.751l-11.812,4.289l-461.858,-405.751l11.812,-4.289Z" style="fill:#c1c1c1;"/><path d="M113.983,-34.867l461.858,405.75l-11.812,4.289l-461.857,-405.75l11.811,-4.289Z" style="fill:#c1c1c1;"/><path d="M-275.404,99.564l461.857,405.75l-11.812,4.289l-461.857,-405.75l11.812,-4.289Z" style="fill:#c1c1c1;"/><path d="M-129.301,49.966l461.858,405.75l-11.812,4.289l-461.857,-405.75l11.811,-4.289Z" style="fill:#c1c1c1;"/><path d="M66.281,-18.186l461.858,405.75l-11.812,4.289l-461.857,-405.75l11.811,-4.289Z" style="fill:#c1c1c1;"/><path d="M-323.106,116.245l461.857,405.75l-11.811,4.289l-461.858,-405.75l11.812,-4.289Z" style="fill:#c1c1c1;"/><path d="M-32.036,16.696l461.857,405.75l-11.811,4.289l-461.858,-405.75l11.812,-4.289Z" style="fill:#c1c1c1;"/><path d="M-421.424,151.127l461.857,405.75l-11.811,4.289l-461.858,-405.75l11.812,-4.289Z" style="fill:#143a69;"/><path d="M163.546,-51.457l461.858,405.75l-11.812,4.289l-461.858,-405.75l11.812,-4.289Z" style="fill:#143a69;"/><path d="M-225.842,82.974l461.858,405.75l-11.812,4.289l-461.857,-405.75l11.811,-4.289Z" style="fill:#c1c1c1;"/></g></g><path d="M389.228,240.951l86.305,-115.504l8.83,-0l-86.464,115.369l84.496,112.192l-8.553,-0l-84.614,-112.057Z" style="fill:#9a9a9a;"/><path d="M529.685,296.173l-58.902,0l-0,-112.165l56.387,0l0,11.354l-44.119,0l-0,38.1l40.766,-0l0,11.277l-40.766,-0l-0,40.157l46.634,-0l-0,11.277Z" style="fill:#393939;fill-rule:nonzero;"/><path d="M641.164,296.173l-15.469,0l-58.521,-90.524c-1.219,-1.88 -2.387,-4.216 -3.505,-7.01l-0.381,-0c0.356,2.895 0.534,8.001 0.534,15.316l-0,82.218l-12.344,0l-0,-112.165l16.306,0l56.921,89.306c2.641,4.114 4.14,6.578 4.495,7.391l0.305,-0c-0.559,-3.708 -0.838,-9.246 -0.838,-16.612l0,-80.085l12.497,0l-0,112.165Z" style="fill:#393939;fill-rule:nonzero;"/><path d="M752.262,251.063c-0,31.344 -14.123,47.015 -42.367,47.015c-26.924,0 -40.385,-15.087 -40.385,-45.262l-0,-68.808l12.268,0l-0,67.97c-0,23.266 9.88,34.899 29.641,34.899c18.999,-0 28.498,-11.227 28.498,-33.68l0,-69.189l12.345,0l-0,67.055Z" style="fill:#393939;fill-rule:nonzero;"/><path d="M775.274,276.743c3.454,2.997 8.09,5.41 13.906,7.238c5.817,1.829 11.189,2.744 16.116,2.744c16.307,-0 24.46,-5.919 24.46,-17.755c-0,-3.403 -0.851,-6.4 -2.553,-8.991c-1.701,-2.591 -3.924,-4.801 -6.667,-6.63c-2.743,-1.828 -8.458,-4.978 -17.145,-9.448c-10.465,-5.385 -17.742,-10.351 -21.831,-14.897c-4.089,-4.547 -6.134,-10.249 -6.134,-17.107c0,-9.144 3.721,-16.383 11.163,-21.716c7.442,-5.334 16.624,-8.001 27.546,-8.001c11.074,-0 18.999,1.32 23.774,3.962l0,14.249c-6.502,-4.521 -14.96,-6.782 -25.374,-6.782c-7.112,0 -12.916,1.524 -17.411,4.572c-4.496,3.048 -6.744,7.265 -6.744,12.649c-0,4.877 1.587,8.852 4.762,11.926c3.175,3.073 9.767,7.048 19.774,11.925c11.684,5.842 19.558,11.353 23.622,16.535c4.064,5.181 6.096,10.795 6.096,16.84c-0,9.703 -3.506,17.132 -10.516,22.288c-7.01,5.156 -16.713,7.734 -29.108,7.734c-3.911,0 -8.826,-0.622 -14.744,-1.867c-5.918,-1.244 -10.249,-2.781 -12.992,-4.61l-0,-14.858Z" style="fill:#393939;fill-rule:nonzero;"/></svg>